<?xml version="1.0" encoding="UTF-8" standalone="no"?><!DOCTYPE svg PUBLIC "-//W3C//DTD SVG 1.1//EN" "http://www.w3.org/Graphics/SVG/1.1/DTD/svg11.dtd"><!-- Generated by graphviz version 2.40.1 (20161225.0304)
 --><!-- Title: A&#45;1.c.011t.cfg Pages: 1 --><svg xmlns="http://www.w3.org/2000/svg" xmlns:xlink="http://www.w3.org/1999/xlink" width="172pt" height="719pt" viewBox="0.00 0.00 172.00 718.60">
<g id="graph0" class="graph" transform="scale(1 1) rotate(0) translate(4 714.6)">
<title>A-1.c.011t.cfg</title>
<polygon fill="#ffffff" stroke="transparent" points="-4,4 -4,-714.6 168,-714.6 168,4 -4,4"/>
<g id="clust1" class="cluster">
<title>cluster_main</title>
<polygon fill="none" stroke="#000000" stroke-dasharray="5,2" points="8,-8 8,-702.6 156,-702.6 156,-8 8,-8"/>
<text text-anchor="middle" x="82" y="-686" font-family="Times,serif" font-size="14.00" fill="#000000">main ()</text>
</g>
<!-- fn_0_basic_block_0 -->
<g id="node1" class="node">
<title>fn_0_basic_block_0</title>
<polygon fill="#ffffff" stroke="#000000" points="87,-669.8 25.76,-651.8 87,-633.8 148.24,-651.8 87,-669.8"/>
<polyline fill="none" stroke="#000000" points="37.273,-655.184 37.273,-648.416 "/>
<polyline fill="none" stroke="#000000" points="75.487,-637.184 98.513,-637.184 "/>
<polyline fill="none" stroke="#000000" points="136.727,-648.416 136.727,-655.184 "/>
<polyline fill="none" stroke="#000000" points="98.513,-666.416 75.487,-666.416 "/>
<text text-anchor="middle" x="87" y="-647.6" font-family="Times,serif" font-size="14.00" fill="#000000">ENTRY</text>
</g>
<!-- fn_0_basic_block_1 -->
<g id="node2" class="node">
<title>fn_0_basic_block_1</title>
<polygon fill="#ffffff" stroke="#000000" points="92,-52 45.1002,-34 92,-16 138.8998,-34 92,-52"/>
<polyline fill="none" stroke="#000000" points="56.3034,-38.2998 56.3034,-29.7002 "/>
<polyline fill="none" stroke="#000000" points="80.7968,-20.2998 103.2032,-20.2998 "/>
<polyline fill="none" stroke="#000000" points="127.6966,-29.7002 127.6966,-38.2998 "/>
<polyline fill="none" stroke="#000000" points="103.2032,-47.7002 80.7968,-47.7002 "/>
<text text-anchor="middle" x="92" y="-29.8" font-family="Times,serif" font-size="14.00" fill="#000000">EXIT</text>
</g>
<!-- fn_0_basic_block_0&#45;&gt;fn_0_basic_block_1 -->
<!-- fn_0_basic_block_2 -->
<g id="node3" class="node">
<title>fn_0_basic_block_2</title>
<polygon fill="#d3d3d3" stroke="#000000" points="36.2495,-143.3 36.2495,-542.5 147.7505,-542.5 147.7505,-143.3 36.2495,-143.3"/>
<text text-anchor="middle" x="92" y="-525.9" font-family="Times,serif" font-size="14.00" fill="#000000">FREQ:0</text>
<polyline fill="none" stroke="#000000" points="36.2495,-517.7 147.7505,-517.7 "/>
<text text-anchor="start" x="44.2495" y="-501.1" font-family="Times,serif" font-size="14.00" fill="#000000">&lt;bb 2&gt;:</text>
<text text-anchor="middle" x="92" y="-484.3" font-family="Times,serif" font-size="14.00" fill="#000000"></text>
<polyline fill="none" stroke="#000000" points="36.2495,-476.1 147.7505,-476.1 "/>
<text text-anchor="start" x="44.2495" y="-459.5" font-family="Times,serif" font-size="14.00" fill="#000000">p = 6;</text>
<text text-anchor="middle" x="92" y="-442.7" font-family="Times,serif" font-size="14.00" fill="#000000"></text>
<polyline fill="none" stroke="#000000" points="36.2495,-434.5 147.7505,-434.5 "/>
<text text-anchor="start" x="44.2495" y="-417.9" font-family="Times,serif" font-size="14.00" fill="#000000">a = 10;</text>
<text text-anchor="middle" x="92" y="-401.1" font-family="Times,serif" font-size="14.00" fill="#000000"></text>
<polyline fill="none" stroke="#000000" points="36.2495,-392.9 147.7505,-392.9 "/>
<text text-anchor="start" x="44.2495" y="-376.3" font-family="Times,serif" font-size="14.00" fill="#000000">b = 20;</text>
<text text-anchor="middle" x="92" y="-359.5" font-family="Times,serif" font-size="14.00" fill="#000000"></text>
<polyline fill="none" stroke="#000000" points="36.2495,-351.3 147.7505,-351.3 "/>
<text text-anchor="start" x="44.2495" y="-334.7" font-family="Times,serif" font-size="14.00" fill="#000000">D.1414 = a * b;</text>
<text text-anchor="middle" x="92" y="-317.9" font-family="Times,serif" font-size="14.00" fill="#000000"></text>
<polyline fill="none" stroke="#000000" points="36.2495,-309.7 147.7505,-309.7 "/>
<text text-anchor="start" x="44.2495" y="-293.1" font-family="Times,serif" font-size="14.00" fill="#000000">c = D.1414 + 25;</text>
<text text-anchor="middle" x="92" y="-276.3" font-family="Times,serif" font-size="14.00" fill="#000000"></text>
<polyline fill="none" stroke="#000000" points="36.2495,-268.1 147.7505,-268.1 "/>
<text text-anchor="start" x="44.2495" y="-251.5" font-family="Times,serif" font-size="14.00" fill="#000000">p = 6;</text>
<text text-anchor="middle" x="92" y="-234.7" font-family="Times,serif" font-size="14.00" fill="#000000"></text>
<polyline fill="none" stroke="#000000" points="36.2495,-226.5 147.7505,-226.5 "/>
<text text-anchor="start" x="44.2495" y="-209.9" font-family="Times,serif" font-size="14.00" fill="#000000">q = Z;</text>
<text text-anchor="middle" x="92" y="-193.1" font-family="Times,serif" font-size="14.00" fill="#000000"></text>
<polyline fill="none" stroke="#000000" points="36.2495,-184.9 147.7505,-184.9 "/>
<text text-anchor="start" x="44.2495" y="-168.3" font-family="Times,serif" font-size="14.00" fill="#000000">return;</text>
<text text-anchor="middle" x="92" y="-151.5" font-family="Times,serif" font-size="14.00" fill="#000000"></text>
</g>
<!-- fn_0_basic_block_0&#45;&gt;fn_0_basic_block_2 -->
<g id="edge1" class="edge">
<title>fn_0_basic_block_0:s-&gt;fn_0_basic_block_2:n</title>
<path fill="none" stroke="#0000ff" stroke-width="2" d="M87,-633.8C87,-596.9741 91.1419,-585.4 91.8862,-553.1116"/>
<polygon fill="#0000ff" stroke="#0000ff" stroke-width="2" points="95.3882,-552.9384 92,-542.9 88.3887,-552.8603 95.3882,-552.9384"/>
<text text-anchor="middle" x="103.9909" y="-584.2" font-family="Times,serif" font-size="14.00" fill="#000000">[0%]</text>
</g>
<!-- fn_0_basic_block_2&#45;&gt;fn_0_basic_block_1 -->
<g id="edge2" class="edge">
<title>fn_0_basic_block_2:s-&gt;fn_0_basic_block_1:n</title>
<path fill="none" stroke="#000000" stroke-width="2" d="M92,-142.9C92,-106.1297 92,-94.4594 92,-62.1993"/>
<polygon fill="#000000" stroke="#000000" stroke-width="2" points="95.5001,-62 92,-52 88.5001,-62 95.5001,-62"/>
<text text-anchor="middle" x="105.9909" y="-93.2" font-family="Times,serif" font-size="14.00" fill="#000000">[0%]</text>
</g>
</g>
</svg>