<?xml version="1.0" encoding="UTF-8" standalone="no"?><!DOCTYPE svg PUBLIC "-//W3C//DTD SVG 1.1//EN" "http://www.w3.org/Graphics/SVG/1.1/DTD/svg11.dtd"><!-- Generated by graphviz version 2.40.1 (20161225.0304)
 --><!-- Title: A&#45;2.c.011t.cfg Pages: 1 --><svg xmlns="http://www.w3.org/2000/svg" xmlns:xlink="http://www.w3.org/1999/xlink" width="296pt" height="1436pt" viewBox="0.00 0.00 296.00 1435.60">
<g id="graph0" class="graph" transform="scale(1 1) rotate(0) translate(4 1431.6)">
<title>A-2.c.011t.cfg</title>
<polygon fill="#ffffff" stroke="transparent" points="-4,4 -4,-1431.6 292,-1431.6 292,4 -4,4"/>
<g id="clust1" class="cluster">
<title>cluster_f</title>
<polygon fill="none" stroke="#000000" stroke-dasharray="5,2" points="8,-8 8,-1419.6 280,-1419.6 280,-8 8,-8"/>
<text text-anchor="middle" x="144" y="-1403" font-family="Times,serif" font-size="14.00" fill="#000000">f ()</text>
</g>
<!-- fn_0_basic_block_0 -->
<g id="node1" class="node">
<title>fn_0_basic_block_0</title>
<polygon fill="#ffffff" stroke="#000000" points="86,-1386.8 24.76,-1368.8 86,-1350.8 147.24,-1368.8 86,-1386.8"/>
<polyline fill="none" stroke="#000000" points="36.273,-1372.184 36.273,-1365.416 "/>
<polyline fill="none" stroke="#000000" points="74.487,-1354.184 97.513,-1354.184 "/>
<polyline fill="none" stroke="#000000" points="135.727,-1365.416 135.727,-1372.184 "/>
<polyline fill="none" stroke="#000000" points="97.513,-1383.416 74.487,-1383.416 "/>
<text text-anchor="middle" x="86" y="-1364.6" font-family="Times,serif" font-size="14.00" fill="#000000">ENTRY</text>
</g>
<!-- fn_0_basic_block_1 -->
<g id="node2" class="node">
<title>fn_0_basic_block_1</title>
<polygon fill="#ffffff" stroke="#000000" points="177,-52 130.1002,-34 177,-16 223.8998,-34 177,-52"/>
<polyline fill="none" stroke="#000000" points="141.3034,-38.2998 141.3034,-29.7002 "/>
<polyline fill="none" stroke="#000000" points="165.7968,-20.2998 188.2032,-20.2998 "/>
<polyline fill="none" stroke="#000000" points="212.6966,-29.7002 212.6966,-38.2998 "/>
<polyline fill="none" stroke="#000000" points="188.2032,-47.7002 165.7968,-47.7002 "/>
<text text-anchor="middle" x="177" y="-29.8" font-family="Times,serif" font-size="14.00" fill="#000000">EXIT</text>
</g>
<!-- fn_0_basic_block_0&#45;&gt;fn_0_basic_block_1 -->
<!-- fn_0_basic_block_2 -->
<g id="node3" class="node">
<title>fn_0_basic_block_2</title>
<polygon fill="#d3d3d3" stroke="#000000" points="36.4648,-1059.5 36.4648,-1259.5 135.5352,-1259.5 135.5352,-1059.5 36.4648,-1059.5"/>
<text text-anchor="middle" x="86" y="-1242.9" font-family="Times,serif" font-size="14.00" fill="#000000">FREQ:0</text>
<polyline fill="none" stroke="#000000" points="36.4648,-1234.7 135.5352,-1234.7 "/>
<text text-anchor="start" x="44.4648" y="-1218.1" font-family="Times,serif" font-size="14.00" fill="#000000">&lt;bb 2&gt;:</text>
<text text-anchor="middle" x="86" y="-1201.3" font-family="Times,serif" font-size="14.00" fill="#000000"></text>
<polyline fill="none" stroke="#000000" points="36.4648,-1193.1 135.5352,-1193.1 "/>
<text text-anchor="start" x="44.4648" y="-1176.5" font-family="Times,serif" font-size="14.00" fill="#000000">a = Z;</text>
<text text-anchor="middle" x="86" y="-1159.7" font-family="Times,serif" font-size="14.00" fill="#000000"></text>
<polyline fill="none" stroke="#000000" points="36.4648,-1151.5 135.5352,-1151.5 "/>
<text text-anchor="start" x="44.4648" y="-1134.9" font-family="Times,serif" font-size="14.00" fill="#000000">if (a &lt;= 9)</text>
<text text-anchor="start" x="44.4648" y="-1118.1" font-family="Times,serif" font-size="14.00" fill="#000000">  goto &lt;bb 3&gt;;</text>
<text text-anchor="start" x="44.4648" y="-1101.3" font-family="Times,serif" font-size="14.00" fill="#000000">else</text>
<text text-anchor="start" x="44.4648" y="-1084.5" font-family="Times,serif" font-size="14.00" fill="#000000">  goto &lt;bb 4&gt;;</text>
<text text-anchor="middle" x="86" y="-1067.7" font-family="Times,serif" font-size="14.00" fill="#000000"></text>
</g>
<!-- fn_0_basic_block_0&#45;&gt;fn_0_basic_block_2 -->
<g id="edge1" class="edge">
<title>fn_0_basic_block_0:s-&gt;fn_0_basic_block_2:n</title>
<path fill="none" stroke="#0000ff" stroke-width="2" d="M86,-1350.8C86,-1313.8679 86,-1302.1463 86,-1269.7442"/>
<polygon fill="#0000ff" stroke="#0000ff" stroke-width="2" points="89.5001,-1269.5 86,-1259.5 82.5001,-1269.5 89.5001,-1269.5"/>
<text text-anchor="middle" x="99.9909" y="-1301.2" font-family="Times,serif" font-size="14.00" fill="#000000">[0%]</text>
</g>
<!-- fn_0_basic_block_3 -->
<g id="node4" class="node">
<title>fn_0_basic_block_3</title>
<polygon fill="#d3d3d3" stroke="#000000" points="35.9648,-467.9 35.9648,-634.3 128.0352,-634.3 128.0352,-467.9 35.9648,-467.9"/>
<text text-anchor="middle" x="82" y="-617.7" font-family="Times,serif" font-size="14.00" fill="#000000">FREQ:0</text>
<polyline fill="none" stroke="#000000" points="35.9648,-609.5 128.0352,-609.5 "/>
<text text-anchor="start" x="43.9648" y="-592.9" font-family="Times,serif" font-size="14.00" fill="#000000">&lt;bb 3&gt;:</text>
<text text-anchor="middle" x="82" y="-576.1" font-family="Times,serif" font-size="14.00" fill="#000000"></text>
<polyline fill="none" stroke="#000000" points="35.9648,-567.9 128.0352,-567.9 "/>
<text text-anchor="start" x="43.9648" y="-551.3" font-family="Times,serif" font-size="14.00" fill="#000000">b = 5;</text>
<text text-anchor="middle" x="82" y="-534.5" font-family="Times,serif" font-size="14.00" fill="#000000"></text>
<polyline fill="none" stroke="#000000" points="35.9648,-526.3 128.0352,-526.3 "/>
<text text-anchor="start" x="43.9648" y="-509.7" font-family="Times,serif" font-size="14.00" fill="#000000">c = 17;</text>
<text text-anchor="start" x="43.9648" y="-492.9" font-family="Times,serif" font-size="14.00" fill="#000000">goto &lt;bb 6&gt;;</text>
<text text-anchor="middle" x="82" y="-476.1" font-family="Times,serif" font-size="14.00" fill="#000000"></text>
</g>
<!-- fn_0_basic_block_2&#45;&gt;fn_0_basic_block_3 -->
<g id="edge2" class="edge">
<title>fn_0_basic_block_2:s-&gt;fn_0_basic_block_3:n</title>
<path fill="none" stroke="#000000" stroke-width="2" d="M86,-1059.5C86,-1039.0227 82,-1034.0773 82,-1013.6 82,-1013.6 82,-1013.6 82,-680.2 82,-663.5528 82,-657.05 82,-644.2069"/>
<polygon fill="#000000" stroke="#000000" stroke-width="2" points="85.5001,-644.1 82,-634.1 78.5001,-644.1 85.5001,-644.1"/>
<text text-anchor="middle" x="95.9909" y="-842.7" font-family="Times,serif" font-size="14.00" fill="#000000">[0%]</text>
</g>
<!-- fn_0_basic_block_4 -->
<g id="node5" class="node">
<title>fn_0_basic_block_4</title>
<polygon fill="#d3d3d3" stroke="#000000" points="128.4648,-726.1 128.4648,-967.7 227.5352,-967.7 227.5352,-726.1 128.4648,-726.1"/>
<text text-anchor="middle" x="178" y="-951.1" font-family="Times,serif" font-size="14.00" fill="#000000">FREQ:0</text>
<polyline fill="none" stroke="#000000" points="128.4648,-942.9 227.5352,-942.9 "/>
<text text-anchor="start" x="136.4648" y="-926.3" font-family="Times,serif" font-size="14.00" fill="#000000">&lt;bb 4&gt;:</text>
<text text-anchor="middle" x="178" y="-909.5" font-family="Times,serif" font-size="14.00" fill="#000000"></text>
<polyline fill="none" stroke="#000000" points="128.4648,-901.3 227.5352,-901.3 "/>
<text text-anchor="start" x="136.4648" y="-884.7" font-family="Times,serif" font-size="14.00" fill="#000000">b = 6;</text>
<text text-anchor="middle" x="178" y="-867.9" font-family="Times,serif" font-size="14.00" fill="#000000"></text>
<polyline fill="none" stroke="#000000" points="128.4648,-859.7 227.5352,-859.7 "/>
<text text-anchor="start" x="136.4648" y="-843.1" font-family="Times,serif" font-size="14.00" fill="#000000">c = 20;</text>
<text text-anchor="middle" x="178" y="-826.3" font-family="Times,serif" font-size="14.00" fill="#000000"></text>
<polyline fill="none" stroke="#000000" points="128.4648,-818.1 227.5352,-818.1 "/>
<text text-anchor="start" x="136.4648" y="-801.5" font-family="Times,serif" font-size="14.00" fill="#000000">if (a == 0)</text>
<text text-anchor="start" x="136.4648" y="-784.7" font-family="Times,serif" font-size="14.00" fill="#000000">  goto &lt;bb 5&gt;;</text>
<text text-anchor="start" x="136.4648" y="-767.9" font-family="Times,serif" font-size="14.00" fill="#000000">else</text>
<text text-anchor="start" x="136.4648" y="-751.1" font-family="Times,serif" font-size="14.00" fill="#000000">  goto &lt;bb 6&gt;;</text>
<text text-anchor="middle" x="178" y="-734.3" font-family="Times,serif" font-size="14.00" fill="#000000"></text>
</g>
<!-- fn_0_basic_block_2&#45;&gt;fn_0_basic_block_4 -->
<g id="edge3" class="edge">
<title>fn_0_basic_block_2:s-&gt;fn_0_basic_block_4:n</title>
<path fill="none" stroke="#000000" stroke-width="2" d="M86,-1059.5C86,-1005.5189 166.5228,-1022.8706 176.9027,-978.0848"/>
<polygon fill="#000000" stroke="#000000" stroke-width="2" points="180.4086,-978.2174 178,-967.9 173.4489,-977.4675 180.4086,-978.2174"/>
<text text-anchor="middle" x="164.9909" y="-1009.4" font-family="Times,serif" font-size="14.00" fill="#000000">[0%]</text>
</g>
<!-- fn_0_basic_block_6 -->
<g id="node7" class="node">
<title>fn_0_basic_block_6</title>
<polygon fill="#d3d3d3" stroke="#000000" points="107.4462,-143.3 107.4462,-376.1 246.5538,-376.1 246.5538,-143.3 107.4462,-143.3"/>
<text text-anchor="middle" x="177" y="-359.5" font-family="Times,serif" font-size="14.00" fill="#000000">FREQ:0</text>
<polyline fill="none" stroke="#000000" points="107.4462,-351.3 246.5538,-351.3 "/>
<text text-anchor="start" x="115.4462" y="-334.7" font-family="Times,serif" font-size="14.00" fill="#000000">&lt;bb 6&gt;:</text>
<text text-anchor="middle" x="177" y="-317.9" font-family="Times,serif" font-size="14.00" fill="#000000"></text>
<polyline fill="none" stroke="#000000" points="107.4462,-309.7 246.5538,-309.7 "/>
<text text-anchor="start" x="115.4462" y="-293.1" font-family="Times,serif" font-size="14.00" fill="#000000">D.1417 = b * 10;</text>
<text text-anchor="middle" x="177" y="-276.3" font-family="Times,serif" font-size="14.00" fill="#000000"></text>
<polyline fill="none" stroke="#000000" points="107.4462,-268.1 246.5538,-268.1 "/>
<text text-anchor="start" x="115.4462" y="-251.5" font-family="Times,serif" font-size="14.00" fill="#000000">D.1418 = D.1417 + c;</text>
<text text-anchor="middle" x="177" y="-234.7" font-family="Times,serif" font-size="14.00" fill="#000000"></text>
<polyline fill="none" stroke="#000000" points="107.4462,-226.5 246.5538,-226.5 "/>
<text text-anchor="start" x="115.4462" y="-209.9" font-family="Times,serif" font-size="14.00" fill="#000000">Z = D.1418;</text>
<text text-anchor="middle" x="177" y="-193.1" font-family="Times,serif" font-size="14.00" fill="#000000"></text>
<polyline fill="none" stroke="#000000" points="107.4462,-184.9 246.5538,-184.9 "/>
<text text-anchor="start" x="115.4462" y="-168.3" font-family="Times,serif" font-size="14.00" fill="#000000">return;</text>
<text text-anchor="middle" x="177" y="-151.5" font-family="Times,serif" font-size="14.00" fill="#000000"></text>
</g>
<!-- fn_0_basic_block_3&#45;&gt;fn_0_basic_block_6 -->
<g id="edge4" class="edge">
<title>fn_0_basic_block_3:s-&gt;fn_0_basic_block_6:n</title>
<path fill="none" stroke="#0000ff" stroke-width="2" d="M82,-468.1C82,-441.8712 157.3552,-412.4296 173.8392,-385.498"/>
<polygon fill="#0000ff" stroke="#0000ff" stroke-width="2" points="177.2607,-386.2916 177,-375.7 170.5988,-384.1425 177.2607,-386.2916"/>
<text text-anchor="middle" x="153.9909" y="-417.8" font-family="Times,serif" font-size="14.00" fill="#000000">[0%]</text>
</g>
<!-- fn_0_basic_block_5 -->
<g id="node6" class="node">
<title>fn_0_basic_block_5</title>
<polygon fill="#d3d3d3" stroke="#000000" points="145.6655,-497.1 145.6655,-605.1 208.3345,-605.1 208.3345,-497.1 145.6655,-497.1"/>
<text text-anchor="middle" x="177" y="-588.5" font-family="Times,serif" font-size="14.00" fill="#000000">FREQ:0</text>
<polyline fill="none" stroke="#000000" points="145.6655,-580.3 208.3345,-580.3 "/>
<text text-anchor="start" x="153.6655" y="-563.7" font-family="Times,serif" font-size="14.00" fill="#000000">&lt;bb 5&gt;:</text>
<text text-anchor="middle" x="177" y="-546.9" font-family="Times,serif" font-size="14.00" fill="#000000"></text>
<polyline fill="none" stroke="#000000" points="145.6655,-538.7 208.3345,-538.7 "/>
<text text-anchor="start" x="153.6655" y="-522.1" font-family="Times,serif" font-size="14.00" fill="#000000">c = 0;</text>
<text text-anchor="middle" x="177" y="-505.3" font-family="Times,serif" font-size="14.00" fill="#000000"></text>
</g>
<!-- fn_0_basic_block_4&#45;&gt;fn_0_basic_block_5 -->
<g id="edge5" class="edge">
<title>fn_0_basic_block_4:s-&gt;fn_0_basic_block_5:n</title>
<path fill="none" stroke="#000000" stroke-width="2" d="M178,-725.9C178,-675.7747 177.1284,-660.7505 177.0126,-615.287"/>
<polygon fill="#000000" stroke="#000000" stroke-width="2" points="180.5125,-615.0956 177,-605.1 173.5125,-615.1044 180.5125,-615.0956"/>
<text text-anchor="middle" x="190.9909" y="-676" font-family="Times,serif" font-size="14.00" fill="#000000">[0%]</text>
</g>
<!-- fn_0_basic_block_4&#45;&gt;fn_0_basic_block_6 -->
<g id="edge6" class="edge">
<title>fn_0_basic_block_4:s-&gt;fn_0_basic_block_6:n</title>
<path fill="none" stroke="#000000" stroke-width="2" d="M178,-725.9C178,-690.2211 244,-715.8789 244,-680.2 244,-680.2 244,-680.2 244,-422 244,-389.7628 190.8547,-406.9336 179.2292,-385.5044"/>
<polygon fill="#000000" stroke="#000000" stroke-width="2" points="182.6301,-384.6751 177,-375.7 175.8043,-386.2271 182.6301,-384.6751"/>
<text text-anchor="middle" x="257.9909" y="-546.9" font-family="Times,serif" font-size="14.00" fill="#000000">[0%]</text>
</g>
<!-- fn_0_basic_block_5&#45;&gt;fn_0_basic_block_6 -->
<g id="edge7" class="edge">
<title>fn_0_basic_block_5:s-&gt;fn_0_basic_block_6:n</title>
<path fill="none" stroke="#0000ff" stroke-width="2" d="M177,-497.1C177,-446.7274 177,-431.6255 177,-385.9373"/>
<polygon fill="#0000ff" stroke="#0000ff" stroke-width="2" points="180.5001,-385.7 177,-375.7 173.5001,-385.7 180.5001,-385.7"/>
<text text-anchor="middle" x="190.9909" y="-417.8" font-family="Times,serif" font-size="14.00" fill="#000000">[0%]</text>
</g>
<!-- fn_0_basic_block_6&#45;&gt;fn_0_basic_block_1 -->
<g id="edge8" class="edge">
<title>fn_0_basic_block_6:s-&gt;fn_0_basic_block_1:n</title>
<path fill="none" stroke="#000000" stroke-width="2" d="M177,-143.7C177,-106.6061 177,-94.8331 177,-62.289"/>
<polygon fill="#000000" stroke="#000000" stroke-width="2" points="180.5001,-62 177,-52 173.5001,-62 180.5001,-62"/>
<text text-anchor="middle" x="190.9909" y="-93.2" font-family="Times,serif" font-size="14.00" fill="#000000">[0%]</text>
</g>
</g>
</svg>