<?xml version="1.0" encoding="UTF-8" standalone="no"?><!DOCTYPE svg PUBLIC "-//W3C//DTD SVG 1.1//EN" "http://www.w3.org/Graphics/SVG/1.1/DTD/svg11.dtd"><!-- Generated by graphviz version 2.40.1 (20161225.0304)
 --><!-- Title: A&#45;3.c.011t.cfg Pages: 1 --><svg xmlns="http://www.w3.org/2000/svg" xmlns:xlink="http://www.w3.org/1999/xlink" width="592pt" height="2540pt" viewBox="0.00 0.00 591.98 2540.20">
<g id="graph0" class="graph" transform="scale(1 1) rotate(0) translate(4 2536.2)">
<title>A-3.c.011t.cfg</title>
<polygon fill="#ffffff" stroke="transparent" points="-4,4 -4,-2536.2 587.9818,-2536.2 587.9818,4 -4,4"/>
<g id="clust1" class="cluster">
<title>cluster_main</title>
<polygon fill="none" stroke="#000000" stroke-dasharray="5,2" points="8,-8 8,-2524.2 526,-2524.2 526,-8 8,-8"/>
<text text-anchor="middle" x="267" y="-2507.6" font-family="Times,serif" font-size="14.00" fill="#000000">main ()</text>
</g>
<g id="clust2" class="cluster">
<title>cluster_0_2</title>
<polygon fill="#e0e0e0" stroke="#006400" stroke-width="2" points="142,-16 142,-1668.4 384,-1668.4 384,-16 142,-16"/>
<text text-anchor="middle" x="167.6953" y="-1651.8" font-family="Times,serif" font-size="14.00" fill="#000000">loop 2</text>
</g>
<g id="clust3" class="cluster">
<title>cluster_0_3</title>
<polygon fill="#c4c4c4" stroke="#006400" stroke-width="2" points="150,-24 150,-843.2 304,-843.2 304,-24 150,-24"/>
<text text-anchor="middle" x="175.6953" y="-826.6" font-family="Times,serif" font-size="14.00" fill="#000000">loop 3</text>
</g>
<g id="clust4" class="cluster">
<title>cluster_0_1</title>
<polygon fill="#e0e0e0" stroke="#006400" stroke-width="2" points="392,-1493.4 392,-2158 518,-2158 518,-1493.4 392,-1493.4"/>
<text text-anchor="middle" x="417.6953" y="-2141.4" font-family="Times,serif" font-size="14.00" fill="#000000">loop 1</text>
</g>
<!-- fn_0_basic_block_8 -->
<g id="node1" class="node">
<title>fn_0_basic_block_8</title>
<polygon fill="#d3d3d3" stroke="#000000" points="158.4648,-651.5 158.4648,-809.9 257.5352,-809.9 257.5352,-651.5 158.4648,-651.5"/>
<text text-anchor="middle" x="208" y="-793.3" font-family="Times,serif" font-size="14.00" fill="#000000">FREQ:0</text>
<polyline fill="none" stroke="#000000" points="158.4648,-785.1 257.5352,-785.1 "/>
<text text-anchor="start" x="166.4648" y="-768.5" font-family="Times,serif" font-size="14.00" fill="#000000">&lt;bb 8&gt;:</text>
<text text-anchor="middle" x="208" y="-751.7" font-family="Times,serif" font-size="14.00" fill="#000000"></text>
<polyline fill="none" stroke="#000000" points="158.4648,-743.5 257.5352,-743.5 "/>
<text text-anchor="start" x="166.4648" y="-726.9" font-family="Times,serif" font-size="14.00" fill="#000000">if (j &lt;= 49)</text>
<text text-anchor="start" x="166.4648" y="-710.1" font-family="Times,serif" font-size="14.00" fill="#000000">  goto &lt;bb 7&gt;;</text>
<text text-anchor="start" x="166.4648" y="-693.3" font-family="Times,serif" font-size="14.00" fill="#000000">else</text>
<text text-anchor="start" x="166.4648" y="-676.5" font-family="Times,serif" font-size="14.00" fill="#000000">  goto &lt;bb 9&gt;;</text>
<text text-anchor="middle" x="208" y="-659.7" font-family="Times,serif" font-size="14.00" fill="#000000"></text>
</g>
<!-- fn_0_basic_block_7 -->
<g id="node2" class="node">
<title>fn_0_basic_block_7</title>
<polygon fill="#d3d3d3" stroke="#000000" points="158.0216,-32.5 158.0216,-223.7 295.9784,-223.7 295.9784,-32.5 158.0216,-32.5"/>
<text text-anchor="middle" x="227" y="-207.1" font-family="Times,serif" font-size="14.00" fill="#000000">FREQ:0</text>
<polyline fill="none" stroke="#000000" points="158.0216,-198.9 295.9784,-198.9 "/>
<text text-anchor="start" x="166.0216" y="-182.3" font-family="Times,serif" font-size="14.00" fill="#000000">&lt;bb 7&gt;:</text>
<text text-anchor="middle" x="227" y="-165.5" font-family="Times,serif" font-size="14.00" fill="#000000"></text>
<polyline fill="none" stroke="#000000" points="158.0216,-157.3 295.9784,-157.3 "/>
<text text-anchor="start" x="166.0216" y="-140.7" font-family="Times,serif" font-size="14.00" fill="#000000">D.1420 = i * j;</text>
<text text-anchor="middle" x="227" y="-123.9" font-family="Times,serif" font-size="14.00" fill="#000000"></text>
<polyline fill="none" stroke="#000000" points="158.0216,-115.7 295.9784,-115.7 "/>
<text text-anchor="start" x="166.0216" y="-99.1" font-family="Times,serif" font-size="14.00" fill="#000000">sum = D.1420 + sum;</text>
<text text-anchor="middle" x="227" y="-82.3" font-family="Times,serif" font-size="14.00" fill="#000000"></text>
<polyline fill="none" stroke="#000000" points="158.0216,-74.1 295.9784,-74.1 "/>
<text text-anchor="start" x="166.0216" y="-57.5" font-family="Times,serif" font-size="14.00" fill="#000000">j = j + 1;</text>
<text text-anchor="middle" x="227" y="-40.7" font-family="Times,serif" font-size="14.00" fill="#000000"></text>
</g>
<!-- fn_0_basic_block_8&#45;&gt;fn_0_basic_block_7 -->
<g id="edge9" class="edge">
<title>fn_0_basic_block_8:s-&gt;fn_0_basic_block_7:n</title>
<path fill="none" stroke="#000000" stroke-width="2" d="M208,-651.7C208,-634.5141 202,-630.6859 202,-613.5 202,-613.5 202,-613.5 202,-261.7 202,-245.7084 217.8752,-244.0703 224.3246,-233.9099"/>
<polygon fill="#000000" stroke="#000000" stroke-width="2" points="227.7454,-234.6686 227,-224.1 220.9921,-232.8267 227.7454,-234.6686"/>
<text text-anchor="middle" x="215.9909" y="-425.5" font-family="Times,serif" font-size="14.00" fill="#000000">[0%]</text>
</g>
<!-- fn_0_basic_block_9 -->
<g id="node5" class="node">
<title>fn_0_basic_block_9</title>
<polygon fill="#d3d3d3" stroke="#000000" points="311.7695,-375.7 311.7695,-483.7 376.2305,-483.7 376.2305,-375.7 311.7695,-375.7"/>
<text text-anchor="middle" x="344" y="-467.1" font-family="Times,serif" font-size="14.00" fill="#000000">FREQ:0</text>
<polyline fill="none" stroke="#000000" points="311.7695,-458.9 376.2305,-458.9 "/>
<text text-anchor="start" x="319.7695" y="-442.3" font-family="Times,serif" font-size="14.00" fill="#000000">&lt;bb 9&gt;:</text>
<text text-anchor="middle" x="344" y="-425.5" font-family="Times,serif" font-size="14.00" fill="#000000"></text>
<polyline fill="none" stroke="#000000" points="311.7695,-417.3 376.2305,-417.3 "/>
<text text-anchor="start" x="319.7695" y="-400.7" font-family="Times,serif" font-size="14.00" fill="#000000">i = i + 1;</text>
<text text-anchor="middle" x="344" y="-383.9" font-family="Times,serif" font-size="14.00" fill="#000000"></text>
</g>
<!-- fn_0_basic_block_8&#45;&gt;fn_0_basic_block_9 -->
<g id="edge10" class="edge">
<title>fn_0_basic_block_8:s-&gt;fn_0_basic_block_9:n</title>
<path fill="none" stroke="#000000" stroke-width="2" d="M208,-651.7C208,-621.5719 264,-643.6281 264,-613.5 264,-613.5 264,-613.5 264,-521.7 264,-505.3244 319.3821,-503.5173 337.987,-492.0358"/>
<polygon fill="#000000" stroke="#000000" stroke-width="2" points="340.9883,-493.8578 344,-483.7 335.3112,-489.7626 340.9883,-493.8578"/>
<text text-anchor="middle" x="277.9909" y="-563.4" font-family="Times,serif" font-size="14.00" fill="#000000">[0%]</text>
</g>
<!-- fn_0_basic_block_7&#45;&gt;fn_0_basic_block_8 -->
<g id="edge8" class="edge">
<title>fn_0_basic_block_7:s-&gt;fn_0_basic_block_8:n</title>
<path fill="none" stroke="#0000ff" stroke-width="2" stroke-dasharray="1,5" d="M227,-32.1C227,-32.1 295.9784,-224.2 295.9784,-224.2 285.1933,-293.784 263.2283,-306.4475 248.0182,-375.2 237.4677,-422.8903 242.2393,-436.0565 234,-484.2 229.7062,-509.2891 224.6816,-514.8877 222,-540.2 217.6486,-581.2744 205.542,-597.707 227,-633 235.1842,-646.4609 249.7202,-637.3214 257.5352,-651 257.5352,-651 221.9431,-765.0293 211.0986,-799.7726"/>
<polygon fill="#0000ff" stroke="#0000ff" stroke-width="2" points="207.6386,-799.1113 208,-809.7 214.3206,-801.1971 207.6386,-799.1113"/>
<text text-anchor="middle" x="261.9909" y="-425.5" font-family="Times,serif" font-size="14.00" fill="#000000">[0%]</text>
</g>
<!-- fn_0_basic_block_10 -->
<g id="node3" class="node">
<title>fn_0_basic_block_10</title>
<polygon fill="#d3d3d3" stroke="#000000" points="154.9648,-1476.7 154.9648,-1635.1 261.0352,-1635.1 261.0352,-1476.7 154.9648,-1476.7"/>
<text text-anchor="middle" x="208" y="-1618.5" font-family="Times,serif" font-size="14.00" fill="#000000">FREQ:0</text>
<polyline fill="none" stroke="#000000" points="154.9648,-1610.3 261.0352,-1610.3 "/>
<text text-anchor="start" x="162.9648" y="-1593.7" font-family="Times,serif" font-size="14.00" fill="#000000">&lt;bb 10&gt;:</text>
<text text-anchor="middle" x="208" y="-1576.9" font-family="Times,serif" font-size="14.00" fill="#000000"></text>
<polyline fill="none" stroke="#000000" points="154.9648,-1568.7 261.0352,-1568.7 "/>
<text text-anchor="start" x="162.9648" y="-1552.1" font-family="Times,serif" font-size="14.00" fill="#000000">if (i &lt;= 24)</text>
<text text-anchor="start" x="162.9648" y="-1535.3" font-family="Times,serif" font-size="14.00" fill="#000000">  goto &lt;bb 6&gt;;</text>
<text text-anchor="start" x="162.9648" y="-1518.5" font-family="Times,serif" font-size="14.00" fill="#000000">else</text>
<text text-anchor="start" x="162.9648" y="-1501.7" font-family="Times,serif" font-size="14.00" fill="#000000">  goto &lt;bb 11&gt;;</text>
<text text-anchor="middle" x="208" y="-1484.9" font-family="Times,serif" font-size="14.00" fill="#000000"></text>
</g>
<!-- fn_0_basic_block_6 -->
<g id="node4" class="node">
<title>fn_0_basic_block_6</title>
<polygon fill="#d3d3d3" stroke="#000000" points="161.9648,-1047.9 161.9648,-1172.7 254.0352,-1172.7 254.0352,-1047.9 161.9648,-1047.9"/>
<text text-anchor="middle" x="208" y="-1156.1" font-family="Times,serif" font-size="14.00" fill="#000000">FREQ:0</text>
<polyline fill="none" stroke="#000000" points="161.9648,-1147.9 254.0352,-1147.9 "/>
<text text-anchor="start" x="169.9648" y="-1131.3" font-family="Times,serif" font-size="14.00" fill="#000000">&lt;bb 6&gt;:</text>
<text text-anchor="middle" x="208" y="-1114.5" font-family="Times,serif" font-size="14.00" fill="#000000"></text>
<polyline fill="none" stroke="#000000" points="161.9648,-1106.3 254.0352,-1106.3 "/>
<text text-anchor="start" x="169.9648" y="-1089.7" font-family="Times,serif" font-size="14.00" fill="#000000">j = 0;</text>
<text text-anchor="start" x="169.9648" y="-1072.9" font-family="Times,serif" font-size="14.00" fill="#000000">goto &lt;bb 8&gt;;</text>
<text text-anchor="middle" x="208" y="-1056.1" font-family="Times,serif" font-size="14.00" fill="#000000"></text>
</g>
<!-- fn_0_basic_block_10&#45;&gt;fn_0_basic_block_6 -->
<g id="edge12" class="edge">
<title>fn_0_basic_block_10:s-&gt;fn_0_basic_block_6:n</title>
<path fill="none" stroke="#000000" stroke-width="2" d="M208,-1476.9C208,-1456.4111 208,-1451.2889 208,-1430.8 208,-1430.8 208,-1430.8 208,-1231 208,-1208.7837 208,-1200.7563 208,-1182.7523"/>
<polygon fill="#000000" stroke="#000000" stroke-width="2" points="211.5001,-1182.3 208,-1172.3 204.5001,-1182.3 211.5001,-1182.3"/>
<text text-anchor="middle" x="221.9909" y="-1326.7" font-family="Times,serif" font-size="14.00" fill="#000000">[0%]</text>
</g>
<!-- fn_0_basic_block_11 -->
<g id="node12" class="node">
<title>fn_0_basic_block_11</title>
<polygon fill="#d3d3d3" stroke="#000000" points="43.3041,-1276.9 43.3041,-1384.9 126.6959,-1384.9 126.6959,-1276.9 43.3041,-1276.9"/>
<text text-anchor="middle" x="85" y="-1368.3" font-family="Times,serif" font-size="14.00" fill="#000000">FREQ:0</text>
<polyline fill="none" stroke="#000000" points="43.3041,-1360.1 126.6959,-1360.1 "/>
<text text-anchor="start" x="51.3041" y="-1343.5" font-family="Times,serif" font-size="14.00" fill="#000000">&lt;bb 11&gt;:</text>
<text text-anchor="middle" x="85" y="-1326.7" font-family="Times,serif" font-size="14.00" fill="#000000"></text>
<polyline fill="none" stroke="#000000" points="43.3041,-1318.5 126.6959,-1318.5 "/>
<text text-anchor="start" x="51.3041" y="-1301.9" font-family="Times,serif" font-size="14.00" fill="#000000">D.1421 = 0;</text>
<text text-anchor="middle" x="85" y="-1285.1" font-family="Times,serif" font-size="14.00" fill="#000000"></text>
</g>
<!-- fn_0_basic_block_10&#45;&gt;fn_0_basic_block_11 -->
<g id="edge13" class="edge">
<title>fn_0_basic_block_10:s-&gt;fn_0_basic_block_11:n</title>
<path fill="none" stroke="#000000" stroke-width="2" d="M208,-1476.9C208,-1446.1 107.8504,-1423.768 88.29,-1394.6218"/>
<polygon fill="#000000" stroke="#000000" stroke-width="2" points="91.5209,-1393.2504 85,-1384.9 84.8903,-1395.4943 91.5209,-1393.2504"/>
<text text-anchor="middle" x="175.9909" y="-1426.6" font-family="Times,serif" font-size="14.00" fill="#000000">[0%]</text>
</g>
<!-- fn_0_basic_block_6&#45;&gt;fn_0_basic_block_8 -->
<g id="edge7" class="edge">
<title>fn_0_basic_block_6:s-&gt;fn_0_basic_block_8:n</title>
<path fill="none" stroke="#0000ff" stroke-width="2" d="M208,-1048.3C208,-1022.2111 208,-1015.6889 208,-989.6 208,-989.6 208,-989.6 208,-870.7 208,-847.2955 208,-839.0445 208,-819.7835"/>
<polygon fill="#0000ff" stroke="#0000ff" stroke-width="2" points="211.5001,-819.7 208,-809.7 204.5001,-819.7 211.5001,-819.7"/>
<text text-anchor="middle" x="221.9909" y="-922" font-family="Times,serif" font-size="14.00" fill="#000000">[0%]</text>
</g>
<!-- fn_0_basic_block_9&#45;&gt;fn_0_basic_block_10 -->
<g id="edge11" class="edge">
<title>fn_0_basic_block_9:s-&gt;fn_0_basic_block_10:n</title>
<path fill="none" stroke="#0000ff" stroke-width="2" stroke-dasharray="1,5" d="M344,-375.7C344,-375.7 376.2305,-484.2 376.2305,-484.2 360.8365,-518.5997 313,-503.0129 313,-540.7 313,-632.5 313,-632.5 313,-632.5 313,-726.1708 311.8852,-749.6098 308,-843.2 293.3799,-1195.3819 517.5536,-1393.1477 261.0352,-1634.9 254.7366,-1640.8361 229.0868,-1644.4096 215.9048,-1641.2215"/>
<polygon fill="#0000ff" stroke="#0000ff" stroke-width="2" points="217.9958,-1638.4121 208,-1634.9 213.6239,-1643.879 217.9958,-1638.4121"/>
<text text-anchor="middle" x="322.9909" y="-922" font-family="Times,serif" font-size="14.00" fill="#000000">[0%]</text>
</g>
<!-- fn_0_basic_block_4 -->
<g id="node6" class="node">
<title>fn_0_basic_block_4</title>
<polygon fill="#d3d3d3" stroke="#000000" points="400.4648,-1966.3 400.4648,-2124.7 499.5352,-2124.7 499.5352,-1966.3 400.4648,-1966.3"/>
<text text-anchor="middle" x="450" y="-2108.1" font-family="Times,serif" font-size="14.00" fill="#000000">FREQ:0</text>
<polyline fill="none" stroke="#000000" points="400.4648,-2099.9 499.5352,-2099.9 "/>
<text text-anchor="start" x="408.4648" y="-2083.3" font-family="Times,serif" font-size="14.00" fill="#000000">&lt;bb 4&gt;:</text>
<text text-anchor="middle" x="450" y="-2066.5" font-family="Times,serif" font-size="14.00" fill="#000000"></text>
<polyline fill="none" stroke="#000000" points="400.4648,-2058.3 499.5352,-2058.3 "/>
<text text-anchor="start" x="408.4648" y="-2041.7" font-family="Times,serif" font-size="14.00" fill="#000000">if (sum &lt;= 99)</text>
<text text-anchor="start" x="408.4648" y="-2024.9" font-family="Times,serif" font-size="14.00" fill="#000000">  goto &lt;bb 3&gt;;</text>
<text text-anchor="start" x="408.4648" y="-2008.1" font-family="Times,serif" font-size="14.00" fill="#000000">else</text>
<text text-anchor="start" x="408.4648" y="-1991.3" font-family="Times,serif" font-size="14.00" fill="#000000">  goto &lt;bb 5&gt;;</text>
<text text-anchor="middle" x="450" y="-1974.5" font-family="Times,serif" font-size="14.00" fill="#000000"></text>
</g>
<!-- fn_0_basic_block_3 -->
<g id="node7" class="node">
<title>fn_0_basic_block_3</title>
<polygon fill="#d3d3d3" stroke="#000000" points="399.7722,-1501.9 399.7722,-1609.9 502.2278,-1609.9 502.2278,-1501.9 399.7722,-1501.9"/>
<text text-anchor="middle" x="451" y="-1593.3" font-family="Times,serif" font-size="14.00" fill="#000000">FREQ:0</text>
<polyline fill="none" stroke="#000000" points="399.7722,-1585.1 502.2278,-1585.1 "/>
<text text-anchor="start" x="407.7722" y="-1568.5" font-family="Times,serif" font-size="14.00" fill="#000000">&lt;bb 3&gt;:</text>
<text text-anchor="middle" x="451" y="-1551.7" font-family="Times,serif" font-size="14.00" fill="#000000"></text>
<polyline fill="none" stroke="#000000" points="399.7722,-1543.5 502.2278,-1543.5 "/>
<text text-anchor="start" x="407.7722" y="-1526.9" font-family="Times,serif" font-size="14.00" fill="#000000">sum = sum * 2;</text>
<text text-anchor="middle" x="451" y="-1510.1" font-family="Times,serif" font-size="14.00" fill="#000000"></text>
</g>
<!-- fn_0_basic_block_4&#45;&gt;fn_0_basic_block_3 -->
<g id="edge4" class="edge">
<title>fn_0_basic_block_4:s-&gt;fn_0_basic_block_3:n</title>
<path fill="none" stroke="#000000" stroke-width="2" d="M450,-1966.5C450,-1941.5587 418,-1945.3413 418,-1920.4 418,-1920.4 418,-1920.4 418,-1703.8 418,-1663.1932 445.808,-1655.2874 450.3702,-1620.0455"/>
<polygon fill="#000000" stroke="#000000" stroke-width="2" points="453.8737,-1620.0977 451,-1609.9 446.8871,-1619.6639 453.8737,-1620.0977"/>
<text text-anchor="middle" x="431.9909" y="-1807.9" font-family="Times,serif" font-size="14.00" fill="#000000">[0%]</text>
</g>
<!-- fn_0_basic_block_5 -->
<g id="node11" class="node">
<title>fn_0_basic_block_5</title>
<polygon fill="#d3d3d3" stroke="#000000" points="158.4648,-1749.7 158.4648,-1874.5 257.5352,-1874.5 257.5352,-1749.7 158.4648,-1749.7"/>
<text text-anchor="middle" x="208" y="-1857.9" font-family="Times,serif" font-size="14.00" fill="#000000">FREQ:0</text>
<polyline fill="none" stroke="#000000" points="158.4648,-1849.7 257.5352,-1849.7 "/>
<text text-anchor="start" x="166.4648" y="-1833.1" font-family="Times,serif" font-size="14.00" fill="#000000">&lt;bb 5&gt;:</text>
<text text-anchor="middle" x="208" y="-1816.3" font-family="Times,serif" font-size="14.00" fill="#000000"></text>
<polyline fill="none" stroke="#000000" points="158.4648,-1808.1 257.5352,-1808.1 "/>
<text text-anchor="start" x="166.4648" y="-1791.5" font-family="Times,serif" font-size="14.00" fill="#000000">i = 0;</text>
<text text-anchor="start" x="166.4648" y="-1774.7" font-family="Times,serif" font-size="14.00" fill="#000000">goto &lt;bb 10&gt;;</text>
<text text-anchor="middle" x="208" y="-1757.9" font-family="Times,serif" font-size="14.00" fill="#000000"></text>
</g>
<!-- fn_0_basic_block_4&#45;&gt;fn_0_basic_block_5 -->
<g id="edge5" class="edge">
<title>fn_0_basic_block_4:s-&gt;fn_0_basic_block_5:n</title>
<path fill="none" stroke="#000000" stroke-width="2" d="M450,-1966.5C450,-1953.6829 258.0425,-1901.8186 216.0518,-1880.4599"/>
<polygon fill="#000000" stroke="#000000" stroke-width="2" points="218.0168,-1877.5519 208,-1874.1 213.6778,-1883.045 218.0168,-1877.5519"/>
<text text-anchor="middle" x="366.9909" y="-1916.2" font-family="Times,serif" font-size="14.00" fill="#000000">[0%]</text>
</g>
<!-- fn_0_basic_block_3&#45;&gt;fn_0_basic_block_4 -->
<g id="edge3" class="edge">
<title>fn_0_basic_block_3:s-&gt;fn_0_basic_block_4:n</title>
<path fill="none" stroke="#0000ff" stroke-width="2" stroke-dasharray="1,5" d="M451,-1501.9C451,-1501.9 502.2278,-1610.4 502.2278,-1610.4 501.6294,-1838.8912 661.526,-1963.3554 499.5352,-2124.5 493.926,-2130.0799 470.7901,-2133.3253 458.2198,-2130.6222"/>
<polygon fill="#0000ff" stroke="#0000ff" stroke-width="2" points="460.1106,-2127.6664 450,-2124.5 455.9292,-2133.2804 460.1106,-2127.6664"/>
<text text-anchor="middle" x="569.9909" y="-1807.9" font-family="Times,serif" font-size="14.00" fill="#000000">[0%]</text>
</g>
<!-- fn_0_basic_block_0 -->
<g id="node8" class="node">
<title>fn_0_basic_block_0</title>
<polygon fill="#ffffff" stroke="#000000" points="450,-2491.4 388.76,-2473.4 450,-2455.4 511.24,-2473.4 450,-2491.4"/>
<polyline fill="none" stroke="#000000" points="400.273,-2476.784 400.273,-2470.016 "/>
<polyline fill="none" stroke="#000000" points="438.487,-2458.784 461.513,-2458.784 "/>
<polyline fill="none" stroke="#000000" points="499.727,-2470.016 499.727,-2476.784 "/>
<polyline fill="none" stroke="#000000" points="461.513,-2488.016 438.487,-2488.016 "/>
<text text-anchor="middle" x="450" y="-2469.2" font-family="Times,serif" font-size="14.00" fill="#000000">ENTRY</text>
</g>
<!-- fn_0_basic_block_1 -->
<g id="node9" class="node">
<title>fn_0_basic_block_1</title>
<polygon fill="#ffffff" stroke="#000000" points="85,-944.2 38.1002,-926.2 85,-908.2 131.8998,-926.2 85,-944.2"/>
<polyline fill="none" stroke="#000000" points="49.3034,-930.4998 49.3034,-921.9002 "/>
<polyline fill="none" stroke="#000000" points="73.7968,-912.4998 96.2032,-912.4998 "/>
<polyline fill="none" stroke="#000000" points="120.6966,-921.9002 120.6966,-930.4998 "/>
<polyline fill="none" stroke="#000000" points="96.2032,-939.9002 73.7968,-939.9002 "/>
<text text-anchor="middle" x="85" y="-922" font-family="Times,serif" font-size="14.00" fill="#000000">EXIT</text>
</g>
<!-- fn_0_basic_block_0&#45;&gt;fn_0_basic_block_1 -->
<!-- fn_0_basic_block_2 -->
<g id="node10" class="node">
<title>fn_0_basic_block_2</title>
<polygon fill="#d3d3d3" stroke="#000000" points="403.9648,-2239.3 403.9648,-2364.1 496.0352,-2364.1 496.0352,-2239.3 403.9648,-2239.3"/>
<text text-anchor="middle" x="450" y="-2347.5" font-family="Times,serif" font-size="14.00" fill="#000000">FREQ:0</text>
<polyline fill="none" stroke="#000000" points="403.9648,-2339.3 496.0352,-2339.3 "/>
<text text-anchor="start" x="411.9648" y="-2322.7" font-family="Times,serif" font-size="14.00" fill="#000000">&lt;bb 2&gt;:</text>
<text text-anchor="middle" x="450" y="-2305.9" font-family="Times,serif" font-size="14.00" fill="#000000"></text>
<polyline fill="none" stroke="#000000" points="403.9648,-2297.7 496.0352,-2297.7 "/>
<text text-anchor="start" x="411.9648" y="-2281.1" font-family="Times,serif" font-size="14.00" fill="#000000">sum = 0;</text>
<text text-anchor="start" x="411.9648" y="-2264.3" font-family="Times,serif" font-size="14.00" fill="#000000">goto &lt;bb 4&gt;;</text>
<text text-anchor="middle" x="450" y="-2247.5" font-family="Times,serif" font-size="14.00" fill="#000000"></text>
</g>
<!-- fn_0_basic_block_0&#45;&gt;fn_0_basic_block_2 -->
<g id="edge1" class="edge">
<title>fn_0_basic_block_0:s-&gt;fn_0_basic_block_2:n</title>
<path fill="none" stroke="#0000ff" stroke-width="2" d="M450,-2455.4C450,-2418.3061 450,-2406.5331 450,-2373.989"/>
<polygon fill="#0000ff" stroke="#0000ff" stroke-width="2" points="453.5001,-2373.7 450,-2363.7 446.5001,-2373.7 453.5001,-2373.7"/>
<text text-anchor="middle" x="463.9909" y="-2405.8" font-family="Times,serif" font-size="14.00" fill="#000000">[0%]</text>
</g>
<!-- fn_0_basic_block_2&#45;&gt;fn_0_basic_block_4 -->
<g id="edge2" class="edge">
<title>fn_0_basic_block_2:s-&gt;fn_0_basic_block_4:n</title>
<path fill="none" stroke="#0000ff" stroke-width="2" d="M450,-2239.7C450,-2192.1 450,-2177.6898 450,-2134.7572"/>
<polygon fill="#0000ff" stroke="#0000ff" stroke-width="2" points="453.5001,-2134.5 450,-2124.5 446.5001,-2134.5 453.5001,-2134.5"/>
<text text-anchor="middle" x="463.9909" y="-2189.2" font-family="Times,serif" font-size="14.00" fill="#000000">[0%]</text>
</g>
<!-- fn_0_basic_block_5&#45;&gt;fn_0_basic_block_10 -->
<g id="edge6" class="edge">
<title>fn_0_basic_block_5:s-&gt;fn_0_basic_block_10:n</title>
<path fill="none" stroke="#0000ff" stroke-width="2" d="M208,-1750.1C208,-1702.5 208,-1688.0898 208,-1645.1572"/>
<polygon fill="#0000ff" stroke="#0000ff" stroke-width="2" points="211.5001,-1644.9 208,-1634.9 204.5001,-1644.9 211.5001,-1644.9"/>
<text text-anchor="middle" x="221.9909" y="-1699.6" font-family="Times,serif" font-size="14.00" fill="#000000">[0%]</text>
</g>
<!-- fn_0_basic_block_12 -->
<g id="node13" class="node">
<title>fn_0_basic_block_12</title>
<polygon fill="#d3d3d3" stroke="#000000" points="35.7882,-1035.5 35.7882,-1185.1 134.2118,-1185.1 134.2118,-1035.5 35.7882,-1035.5"/>
<text text-anchor="middle" x="85" y="-1168.5" font-family="Times,serif" font-size="14.00" fill="#000000">FREQ:0</text>
<polyline fill="none" stroke="#000000" points="35.7882,-1160.3 134.2118,-1160.3 "/>
<text text-anchor="start" x="43.7882" y="-1143.7" font-family="Times,serif" font-size="14.00" fill="#000000">&lt;bb 12&gt;:</text>
<text text-anchor="middle" x="85" y="-1126.9" font-family="Times,serif" font-size="14.00" fill="#000000"></text>
<polyline fill="none" stroke="#000000" points="35.7882,-1118.7 134.2118,-1118.7 "/>
<text text-anchor="start" x="43.7882" y="-1102.1" font-family="Times,serif" font-size="14.00" fill="#000000">&lt;L9&gt;:</text>
<text text-anchor="middle" x="85" y="-1085.3" font-family="Times,serif" font-size="14.00" fill="#000000"></text>
<polyline fill="none" stroke="#000000" points="35.7882,-1077.1 134.2118,-1077.1 "/>
<text text-anchor="start" x="43.7882" y="-1060.5" font-family="Times,serif" font-size="14.00" fill="#000000">return D.1421;</text>
<text text-anchor="middle" x="85" y="-1043.7" font-family="Times,serif" font-size="14.00" fill="#000000"></text>
</g>
<!-- fn_0_basic_block_11&#45;&gt;fn_0_basic_block_12 -->
<g id="edge14" class="edge">
<title>fn_0_basic_block_11:s-&gt;fn_0_basic_block_12:n</title>
<path fill="none" stroke="#0000ff" stroke-width="2" d="M85,-1276.9C85,-1239.8465 85,-1228.0864 85,-1195.5778"/>
<polygon fill="#0000ff" stroke="#0000ff" stroke-width="2" points="88.5001,-1195.3 85,-1185.3 81.5001,-1195.3 88.5001,-1195.3"/>
<text text-anchor="middle" x="98.9909" y="-1226.8" font-family="Times,serif" font-size="14.00" fill="#000000">[0%]</text>
</g>
<!-- fn_0_basic_block_12&#45;&gt;fn_0_basic_block_1 -->
<g id="edge15" class="edge">
<title>fn_0_basic_block_12:s-&gt;fn_0_basic_block_1:n</title>
<path fill="none" stroke="#000000" stroke-width="2" d="M85,-1035.3C85,-998.4488 85,-986.7528 85,-954.4217"/>
<polygon fill="#000000" stroke="#000000" stroke-width="2" points="88.5001,-954.2 85,-944.2 81.5001,-954.2 88.5001,-954.2"/>
<text text-anchor="middle" x="98.9909" y="-985.4" font-family="Times,serif" font-size="14.00" fill="#000000">[0%]</text>
</g>
</g>
</svg>