<?xml version="1.0" encoding="UTF-8" standalone="no"?><!DOCTYPE svg PUBLIC "-//W3C//DTD SVG 1.1//EN" "http://www.w3.org/Graphics/SVG/1.1/DTD/svg11.dtd"><!-- Generated by graphviz version 2.40.1 (20161225.0304)
 --><!-- Title: A&#45;4.c.011t.cfg Pages: 1 --><svg xmlns="http://www.w3.org/2000/svg" xmlns:xlink="http://www.w3.org/1999/xlink" width="395pt" height="1533pt" viewBox="0.00 0.00 394.98 1532.80">
<g id="graph0" class="graph" transform="scale(1 1) rotate(0) translate(4 1528.8)">
<title>A-4.c.011t.cfg</title>
<polygon fill="#ffffff" stroke="transparent" points="-4,4 -4,-1528.8 390.9818,-1528.8 390.9818,4 -4,4"/>
<g id="clust1" class="cluster">
<title>cluster_main</title>
<polygon fill="none" stroke="#000000" stroke-dasharray="5,2" points="8,-8 8,-1516.8 300,-1516.8 300,-8 8,-8"/>
<text text-anchor="middle" x="154" y="-1500.2" font-family="Times,serif" font-size="14.00" fill="#000000">main ()</text>
</g>
<g id="clust2" class="cluster">
<title>cluster_0_1</title>
<polygon fill="#e0e0e0" stroke="#006400" stroke-width="2" points="166,-134.8 166,-1025.8 292,-1025.8 292,-134.8 166,-134.8"/>
<text text-anchor="middle" x="191.6953" y="-1009.2" font-family="Times,serif" font-size="14.00" fill="#000000">loop 1</text>
</g>
<!-- fn_0_basic_block_4 -->
<g id="node1" class="node">
<title>fn_0_basic_block_4</title>
<polygon fill="#d3d3d3" stroke="#000000" points="174.4648,-834.1 174.4648,-992.5 273.5352,-992.5 273.5352,-834.1 174.4648,-834.1"/>
<text text-anchor="middle" x="224" y="-975.9" font-family="Times,serif" font-size="14.00" fill="#000000">FREQ:0</text>
<polyline fill="none" stroke="#000000" points="174.4648,-967.7 273.5352,-967.7 "/>
<text text-anchor="start" x="182.4648" y="-951.1" font-family="Times,serif" font-size="14.00" fill="#000000">&lt;bb 4&gt;:</text>
<text text-anchor="middle" x="224" y="-934.3" font-family="Times,serif" font-size="14.00" fill="#000000"></text>
<polyline fill="none" stroke="#000000" points="174.4648,-926.1 273.5352,-926.1 "/>
<text text-anchor="start" x="182.4648" y="-909.5" font-family="Times,serif" font-size="14.00" fill="#000000">if (i &lt;= 2)</text>
<text text-anchor="start" x="182.4648" y="-892.7" font-family="Times,serif" font-size="14.00" fill="#000000">  goto &lt;bb 3&gt;;</text>
<text text-anchor="start" x="182.4648" y="-875.9" font-family="Times,serif" font-size="14.00" fill="#000000">else</text>
<text text-anchor="start" x="182.4648" y="-859.1" font-family="Times,serif" font-size="14.00" fill="#000000">  goto &lt;bb 5&gt;;</text>
<text text-anchor="middle" x="224" y="-842.3" font-family="Times,serif" font-size="14.00" fill="#000000"></text>
</g>
<!-- fn_0_basic_block_3 -->
<g id="node2" class="node">
<title>fn_0_basic_block_3</title>
<polygon fill="#d3d3d3" stroke="#000000" points="173.6982,-143.3 173.6982,-334.5 270.3018,-334.5 270.3018,-143.3 173.6982,-143.3"/>
<text text-anchor="middle" x="222" y="-317.9" font-family="Times,serif" font-size="14.00" fill="#000000">FREQ:0</text>
<polyline fill="none" stroke="#000000" points="173.6982,-309.7 270.3018,-309.7 "/>
<text text-anchor="start" x="181.6982" y="-293.1" font-family="Times,serif" font-size="14.00" fill="#000000">&lt;bb 3&gt;:</text>
<text text-anchor="middle" x="222" y="-276.3" font-family="Times,serif" font-size="14.00" fill="#000000"></text>
<polyline fill="none" stroke="#000000" points="173.6982,-268.1 270.3018,-268.1 "/>
<text text-anchor="start" x="181.6982" y="-251.5" font-family="Times,serif" font-size="14.00" fill="#000000">D.1415 = b[i];</text>
<text text-anchor="middle" x="222" y="-234.7" font-family="Times,serif" font-size="14.00" fill="#000000"></text>
<polyline fill="none" stroke="#000000" points="173.6982,-226.5 270.3018,-226.5 "/>
<text text-anchor="start" x="181.6982" y="-209.9" font-family="Times,serif" font-size="14.00" fill="#000000">a[i] = D.1415;</text>
<text text-anchor="middle" x="222" y="-193.1" font-family="Times,serif" font-size="14.00" fill="#000000"></text>
<polyline fill="none" stroke="#000000" points="173.6982,-184.9 270.3018,-184.9 "/>
<text text-anchor="start" x="181.6982" y="-168.3" font-family="Times,serif" font-size="14.00" fill="#000000">i = i + 1;</text>
<text text-anchor="middle" x="222" y="-151.5" font-family="Times,serif" font-size="14.00" fill="#000000"></text>
</g>
<!-- fn_0_basic_block_4&#45;&gt;fn_0_basic_block_3 -->
<g id="edge4" class="edge">
<title>fn_0_basic_block_4:s-&gt;fn_0_basic_block_3:n</title>
<path fill="none" stroke="#000000" stroke-width="2" d="M224,-834.3C224,-809.3587 192,-813.1413 192,-788.2 192,-788.2 192,-788.2 192,-380.4 192,-360.1517 212.9637,-358.8873 219.8425,-344.8681"/>
<polygon fill="#000000" stroke="#000000" stroke-width="2" points="223.3053,-345.4141 222,-334.9 216.4637,-343.9333 223.3053,-345.4141"/>
<text text-anchor="middle" x="205.9909" y="-580.1" font-family="Times,serif" font-size="14.00" fill="#000000">[0%]</text>
</g>
<!-- fn_0_basic_block_5 -->
<g id="node6" class="node">
<title>fn_0_basic_block_5</title>
<polygon fill="#d3d3d3" stroke="#000000" points="36.1097,-426.3 36.1097,-742.3 155.8903,-742.3 155.8903,-426.3 36.1097,-426.3"/>
<text text-anchor="middle" x="96" y="-725.7" font-family="Times,serif" font-size="14.00" fill="#000000">FREQ:0</text>
<polyline fill="none" stroke="#000000" points="36.1097,-717.5 155.8903,-717.5 "/>
<text text-anchor="start" x="44.1097" y="-700.9" font-family="Times,serif" font-size="14.00" fill="#000000">&lt;bb 5&gt;:</text>
<text text-anchor="middle" x="96" y="-684.1" font-family="Times,serif" font-size="14.00" fill="#000000"></text>
<polyline fill="none" stroke="#000000" points="36.1097,-675.9 155.8903,-675.9 "/>
<text text-anchor="start" x="44.1097" y="-659.3" font-family="Times,serif" font-size="14.00" fill="#000000">p = &amp;a;</text>
<text text-anchor="middle" x="96" y="-642.5" font-family="Times,serif" font-size="14.00" fill="#000000"></text>
<polyline fill="none" stroke="#000000" points="36.1097,-634.3 155.8903,-634.3 "/>
<text text-anchor="start" x="44.1097" y="-617.7" font-family="Times,serif" font-size="14.00" fill="#000000">D.1416 = p + 8;</text>
<text text-anchor="middle" x="96" y="-600.9" font-family="Times,serif" font-size="14.00" fill="#000000"></text>
<polyline fill="none" stroke="#000000" points="36.1097,-592.7 155.8903,-592.7 "/>
<text text-anchor="start" x="44.1097" y="-576.1" font-family="Times,serif" font-size="14.00" fill="#000000">*D.1416 = 5;</text>
<text text-anchor="middle" x="96" y="-559.3" font-family="Times,serif" font-size="14.00" fill="#000000"></text>
<polyline fill="none" stroke="#000000" points="36.1097,-551.1 155.8903,-551.1 "/>
<text text-anchor="start" x="44.1097" y="-534.5" font-family="Times,serif" font-size="14.00" fill="#000000">a = {CLOBBER};</text>
<text text-anchor="middle" x="96" y="-517.7" font-family="Times,serif" font-size="14.00" fill="#000000"></text>
<polyline fill="none" stroke="#000000" points="36.1097,-509.5 155.8903,-509.5 "/>
<text text-anchor="start" x="44.1097" y="-492.9" font-family="Times,serif" font-size="14.00" fill="#000000">b = {CLOBBER};</text>
<text text-anchor="middle" x="96" y="-476.1" font-family="Times,serif" font-size="14.00" fill="#000000"></text>
<polyline fill="none" stroke="#000000" points="36.1097,-467.9 155.8903,-467.9 "/>
<text text-anchor="start" x="44.1097" y="-451.3" font-family="Times,serif" font-size="14.00" fill="#000000">D.1417 = 0;</text>
<text text-anchor="middle" x="96" y="-434.5" font-family="Times,serif" font-size="14.00" fill="#000000"></text>
</g>
<!-- fn_0_basic_block_4&#45;&gt;fn_0_basic_block_5 -->
<g id="edge5" class="edge">
<title>fn_0_basic_block_4:s-&gt;fn_0_basic_block_5:n</title>
<path fill="none" stroke="#000000" stroke-width="2" d="M224,-834.3C224,-815.8746 202.8767,-824.9501 187,-815.6 145.3968,-791.0991 102.4965,-793.6869 96.6694,-752.4411"/>
<polygon fill="#000000" stroke="#000000" stroke-width="2" points="100.1511,-752.0477 96,-742.3 93.1663,-752.5088 100.1511,-752.0477"/>
<text text-anchor="middle" x="156.9909" y="-784" font-family="Times,serif" font-size="14.00" fill="#000000">[0%]</text>
</g>
<!-- fn_0_basic_block_3&#45;&gt;fn_0_basic_block_4 -->
<g id="edge3" class="edge">
<title>fn_0_basic_block_3:s-&gt;fn_0_basic_block_4:n</title>
<path fill="none" stroke="#0000ff" stroke-width="2" stroke-dasharray="1,5" d="M222,-142.9C222,-132.1663 262.6942,-135.3279 270.3018,-142.9 487.8777,-359.4598 272.8167,-526.6197 273.5352,-833.6 273.5352,-833.6 237.9431,-947.6293 227.0986,-982.3726"/>
<polygon fill="#0000ff" stroke="#0000ff" stroke-width="2" points="223.6386,-981.7113 224,-992.3 230.3206,-983.7971 223.6386,-981.7113"/>
<text text-anchor="middle" x="372.9909" y="-580.1" font-family="Times,serif" font-size="14.00" fill="#000000">[0%]</text>
</g>
<!-- fn_0_basic_block_0 -->
<g id="node3" class="node">
<title>fn_0_basic_block_0</title>
<polygon fill="#ffffff" stroke="#000000" points="224,-1484 162.76,-1466 224,-1448 285.24,-1466 224,-1484"/>
<polyline fill="none" stroke="#000000" points="174.273,-1469.384 174.273,-1462.616 "/>
<polyline fill="none" stroke="#000000" points="212.487,-1451.384 235.513,-1451.384 "/>
<polyline fill="none" stroke="#000000" points="273.727,-1462.616 273.727,-1469.384 "/>
<polyline fill="none" stroke="#000000" points="235.513,-1480.616 212.487,-1480.616 "/>
<text text-anchor="middle" x="224" y="-1461.8" font-family="Times,serif" font-size="14.00" fill="#000000">ENTRY</text>
</g>
<!-- fn_0_basic_block_1 -->
<g id="node4" class="node">
<title>fn_0_basic_block_1</title>
<polygon fill="#ffffff" stroke="#000000" points="96,-52 49.1002,-34 96,-16 142.8998,-34 96,-52"/>
<polyline fill="none" stroke="#000000" points="60.3034,-38.2998 60.3034,-29.7002 "/>
<polyline fill="none" stroke="#000000" points="84.7968,-20.2998 107.2032,-20.2998 "/>
<polyline fill="none" stroke="#000000" points="131.6966,-29.7002 131.6966,-38.2998 "/>
<polyline fill="none" stroke="#000000" points="107.2032,-47.7002 84.7968,-47.7002 "/>
<text text-anchor="middle" x="96" y="-29.8" font-family="Times,serif" font-size="14.00" fill="#000000">EXIT</text>
</g>
<!-- fn_0_basic_block_0&#45;&gt;fn_0_basic_block_1 -->
<!-- fn_0_basic_block_2 -->
<g id="node5" class="node">
<title>fn_0_basic_block_2</title>
<polygon fill="#d3d3d3" stroke="#000000" points="177.9648,-1107.1 177.9648,-1356.7 270.0352,-1356.7 270.0352,-1107.1 177.9648,-1107.1"/>
<text text-anchor="middle" x="224" y="-1340.1" font-family="Times,serif" font-size="14.00" fill="#000000">FREQ:0</text>
<polyline fill="none" stroke="#000000" points="177.9648,-1331.9 270.0352,-1331.9 "/>
<text text-anchor="start" x="185.9648" y="-1315.3" font-family="Times,serif" font-size="14.00" fill="#000000">&lt;bb 2&gt;:</text>
<text text-anchor="middle" x="224" y="-1298.5" font-family="Times,serif" font-size="14.00" fill="#000000"></text>
<polyline fill="none" stroke="#000000" points="177.9648,-1290.3 270.0352,-1290.3 "/>
<text text-anchor="start" x="185.9648" y="-1273.7" font-family="Times,serif" font-size="14.00" fill="#000000">b[0] = 1;</text>
<text text-anchor="middle" x="224" y="-1256.9" font-family="Times,serif" font-size="14.00" fill="#000000"></text>
<polyline fill="none" stroke="#000000" points="177.9648,-1248.7 270.0352,-1248.7 "/>
<text text-anchor="start" x="185.9648" y="-1232.1" font-family="Times,serif" font-size="14.00" fill="#000000">b[1] = 2;</text>
<text text-anchor="middle" x="224" y="-1215.3" font-family="Times,serif" font-size="14.00" fill="#000000"></text>
<polyline fill="none" stroke="#000000" points="177.9648,-1207.1 270.0352,-1207.1 "/>
<text text-anchor="start" x="185.9648" y="-1190.5" font-family="Times,serif" font-size="14.00" fill="#000000">b[2] = 3;</text>
<text text-anchor="middle" x="224" y="-1173.7" font-family="Times,serif" font-size="14.00" fill="#000000"></text>
<polyline fill="none" stroke="#000000" points="177.9648,-1165.5 270.0352,-1165.5 "/>
<text text-anchor="start" x="185.9648" y="-1148.9" font-family="Times,serif" font-size="14.00" fill="#000000">i = 0;</text>
<text text-anchor="start" x="185.9648" y="-1132.1" font-family="Times,serif" font-size="14.00" fill="#000000">goto &lt;bb 4&gt;;</text>
<text text-anchor="middle" x="224" y="-1115.3" font-family="Times,serif" font-size="14.00" fill="#000000"></text>
</g>
<!-- fn_0_basic_block_0&#45;&gt;fn_0_basic_block_2 -->
<g id="edge1" class="edge">
<title>fn_0_basic_block_0:s-&gt;fn_0_basic_block_2:n</title>
<path fill="none" stroke="#0000ff" stroke-width="2" d="M224,-1448C224,-1411.1488 224,-1399.4528 224,-1367.1217"/>
<polygon fill="#0000ff" stroke="#0000ff" stroke-width="2" points="227.5001,-1366.9 224,-1356.9 220.5001,-1366.9 227.5001,-1366.9"/>
<text text-anchor="middle" x="237.9909" y="-1398.4" font-family="Times,serif" font-size="14.00" fill="#000000">[0%]</text>
</g>
<!-- fn_0_basic_block_2&#45;&gt;fn_0_basic_block_4 -->
<g id="edge2" class="edge">
<title>fn_0_basic_block_2:s-&gt;fn_0_basic_block_4:n</title>
<path fill="none" stroke="#0000ff" stroke-width="2" d="M224,-1106.9C224,-1059.5479 224,-1045.2128 224,-1002.5037"/>
<polygon fill="#0000ff" stroke="#0000ff" stroke-width="2" points="227.5001,-1002.3 224,-992.3 220.5001,-1002.3 227.5001,-1002.3"/>
<text text-anchor="middle" x="237.9909" y="-1057" font-family="Times,serif" font-size="14.00" fill="#000000">[0%]</text>
</g>
<!-- fn_0_basic_block_6 -->
<g id="node7" class="node">
<title>fn_0_basic_block_6</title>
<polygon fill="#d3d3d3" stroke="#000000" points="46.7882,-164.1 46.7882,-313.7 145.2118,-313.7 145.2118,-164.1 46.7882,-164.1"/>
<text text-anchor="middle" x="96" y="-297.1" font-family="Times,serif" font-size="14.00" fill="#000000">FREQ:0</text>
<polyline fill="none" stroke="#000000" points="46.7882,-288.9 145.2118,-288.9 "/>
<text text-anchor="start" x="54.7882" y="-272.3" font-family="Times,serif" font-size="14.00" fill="#000000">&lt;bb 6&gt;:</text>
<text text-anchor="middle" x="96" y="-255.5" font-family="Times,serif" font-size="14.00" fill="#000000"></text>
<polyline fill="none" stroke="#000000" points="46.7882,-247.3 145.2118,-247.3 "/>
<text text-anchor="start" x="54.7882" y="-230.7" font-family="Times,serif" font-size="14.00" fill="#000000">&lt;L3&gt;:</text>
<text text-anchor="middle" x="96" y="-213.9" font-family="Times,serif" font-size="14.00" fill="#000000"></text>
<polyline fill="none" stroke="#000000" points="46.7882,-205.7 145.2118,-205.7 "/>
<text text-anchor="start" x="54.7882" y="-189.1" font-family="Times,serif" font-size="14.00" fill="#000000">return D.1417;</text>
<text text-anchor="middle" x="96" y="-172.3" font-family="Times,serif" font-size="14.00" fill="#000000"></text>
</g>
<!-- fn_0_basic_block_5&#45;&gt;fn_0_basic_block_6 -->
<g id="edge6" class="edge">
<title>fn_0_basic_block_5:s-&gt;fn_0_basic_block_6:n</title>
<path fill="none" stroke="#0000ff" stroke-width="2" d="M96,-426.3C96,-379.8569 96,-365.797 96,-323.9079"/>
<polygon fill="#0000ff" stroke="#0000ff" stroke-width="2" points="99.5001,-323.9 96,-313.9 92.5001,-323.9 99.5001,-323.9"/>
<text text-anchor="middle" x="109.9909" y="-376.2" font-family="Times,serif" font-size="14.00" fill="#000000">[0%]</text>
</g>
<!-- fn_0_basic_block_6&#45;&gt;fn_0_basic_block_1 -->
<g id="edge7" class="edge">
<title>fn_0_basic_block_6:s-&gt;fn_0_basic_block_1:n</title>
<path fill="none" stroke="#000000" stroke-width="2" d="M96,-163.9C96,-117.7607 96,-103.7251 96,-62.2258"/>
<polygon fill="#000000" stroke="#000000" stroke-width="2" points="99.5001,-62 96,-52 92.5001,-62 99.5001,-62"/>
<text text-anchor="middle" x="109.9909" y="-93.2" font-family="Times,serif" font-size="14.00" fill="#000000">[0%]</text>
</g>
</g>
</svg>