<?xml version="1.0" encoding="UTF-8" standalone="no"?><!DOCTYPE svg PUBLIC "-//W3C//DTD SVG 1.1//EN" "http://www.w3.org/Graphics/SVG/1.1/DTD/svg11.dtd"><!-- Generated by graphviz version 2.40.1 (20161225.0304)
 --><!-- Title: A&#45;5.c.011t.cfg Pages: 1 --><svg xmlns="http://www.w3.org/2000/svg" xmlns:xlink="http://www.w3.org/1999/xlink" width="232pt" height="1260pt" viewBox="0.00 0.00 232.00 1260.40">
<g id="graph0" class="graph" transform="scale(1 1) rotate(0) translate(4 1256.4)">
<title>A-5.c.011t.cfg</title>
<polygon fill="#ffffff" stroke="transparent" points="-4,4 -4,-1256.4 228,-1256.4 228,4 -4,4"/>
<g id="clust1" class="cluster">
<title>cluster_main</title>
<polygon fill="none" stroke="#000000" stroke-dasharray="5,2" points="8,-8 8,-1244.4 216,-1244.4 216,-8 8,-8"/>
<text text-anchor="middle" x="112" y="-1227.8" font-family="Times,serif" font-size="14.00" fill="#000000">main ()</text>
</g>
<!-- fn_0_basic_block_0 -->
<g id="node1" class="node">
<title>fn_0_basic_block_0</title>
<polygon fill="#ffffff" stroke="#000000" points="86,-1211.6 24.76,-1193.6 86,-1175.6 147.24,-1193.6 86,-1211.6"/>
<polyline fill="none" stroke="#000000" points="36.273,-1196.984 36.273,-1190.216 "/>
<polyline fill="none" stroke="#000000" points="74.487,-1178.984 97.513,-1178.984 "/>
<polyline fill="none" stroke="#000000" points="135.727,-1190.216 135.727,-1196.984 "/>
<polyline fill="none" stroke="#000000" points="97.513,-1208.216 74.487,-1208.216 "/>
<text text-anchor="middle" x="86" y="-1189.4" font-family="Times,serif" font-size="14.00" fill="#000000">ENTRY</text>
</g>
<!-- fn_0_basic_block_1 -->
<g id="node2" class="node">
<title>fn_0_basic_block_1</title>
<polygon fill="#ffffff" stroke="#000000" points="85,-52 38.1002,-34 85,-16 131.8998,-34 85,-52"/>
<polyline fill="none" stroke="#000000" points="49.3034,-38.2998 49.3034,-29.7002 "/>
<polyline fill="none" stroke="#000000" points="73.7968,-20.2998 96.2032,-20.2998 "/>
<polyline fill="none" stroke="#000000" points="120.6966,-29.7002 120.6966,-38.2998 "/>
<polyline fill="none" stroke="#000000" points="96.2032,-47.7002 73.7968,-47.7002 "/>
<text text-anchor="middle" x="85" y="-29.8" font-family="Times,serif" font-size="14.00" fill="#000000">EXIT</text>
</g>
<!-- fn_0_basic_block_0&#45;&gt;fn_0_basic_block_1 -->
<!-- fn_0_basic_block_2 -->
<g id="node3" class="node">
<title>fn_0_basic_block_2</title>
<polygon fill="#d3d3d3" stroke="#000000" points="36.4648,-884.3 36.4648,-1084.3 135.5352,-1084.3 135.5352,-884.3 36.4648,-884.3"/>
<text text-anchor="middle" x="86" y="-1067.7" font-family="Times,serif" font-size="14.00" fill="#000000">FREQ:0</text>
<polyline fill="none" stroke="#000000" points="36.4648,-1059.5 135.5352,-1059.5 "/>
<text text-anchor="start" x="44.4648" y="-1042.9" font-family="Times,serif" font-size="14.00" fill="#000000">&lt;bb 2&gt;:</text>
<text text-anchor="middle" x="86" y="-1026.1" font-family="Times,serif" font-size="14.00" fill="#000000"></text>
<polyline fill="none" stroke="#000000" points="36.4648,-1017.9 135.5352,-1017.9 "/>
<text text-anchor="start" x="44.4648" y="-1001.3" font-family="Times,serif" font-size="14.00" fill="#000000">d = 10;</text>
<text text-anchor="middle" x="86" y="-984.5" font-family="Times,serif" font-size="14.00" fill="#000000"></text>
<polyline fill="none" stroke="#000000" points="36.4648,-976.3 135.5352,-976.3 "/>
<text text-anchor="start" x="44.4648" y="-959.7" font-family="Times,serif" font-size="14.00" fill="#000000">if (c &gt; d)</text>
<text text-anchor="start" x="44.4648" y="-942.9" font-family="Times,serif" font-size="14.00" fill="#000000">  goto &lt;bb 3&gt;;</text>
<text text-anchor="start" x="44.4648" y="-926.1" font-family="Times,serif" font-size="14.00" fill="#000000">else</text>
<text text-anchor="start" x="44.4648" y="-909.3" font-family="Times,serif" font-size="14.00" fill="#000000">  goto &lt;bb 4&gt;;</text>
<text text-anchor="middle" x="86" y="-892.5" font-family="Times,serif" font-size="14.00" fill="#000000"></text>
</g>
<!-- fn_0_basic_block_0&#45;&gt;fn_0_basic_block_2 -->
<g id="edge1" class="edge">
<title>fn_0_basic_block_0:s-&gt;fn_0_basic_block_2:n</title>
<path fill="none" stroke="#0000ff" stroke-width="2" d="M86,-1175.6C86,-1138.6679 86,-1126.9463 86,-1094.5442"/>
<polygon fill="#0000ff" stroke="#0000ff" stroke-width="2" points="89.5001,-1094.3 86,-1084.3 82.5001,-1094.3 89.5001,-1094.3"/>
<text text-anchor="middle" x="99.9909" y="-1126" font-family="Times,serif" font-size="14.00" fill="#000000">[0%]</text>
</g>
<!-- fn_0_basic_block_3 -->
<g id="node4" class="node">
<title>fn_0_basic_block_3</title>
<polygon fill="#d3d3d3" stroke="#000000" points="35.9648,-626.1 35.9648,-792.5 128.0352,-792.5 128.0352,-626.1 35.9648,-626.1"/>
<text text-anchor="middle" x="82" y="-775.9" font-family="Times,serif" font-size="14.00" fill="#000000">FREQ:0</text>
<polyline fill="none" stroke="#000000" points="35.9648,-767.7 128.0352,-767.7 "/>
<text text-anchor="start" x="43.9648" y="-751.1" font-family="Times,serif" font-size="14.00" fill="#000000">&lt;bb 3&gt;:</text>
<text text-anchor="middle" x="82" y="-734.3" font-family="Times,serif" font-size="14.00" fill="#000000"></text>
<polyline fill="none" stroke="#000000" points="35.9648,-726.1 128.0352,-726.1 "/>
<text text-anchor="start" x="43.9648" y="-709.5" font-family="Times,serif" font-size="14.00" fill="#000000">a = 3;</text>
<text text-anchor="middle" x="82" y="-692.7" font-family="Times,serif" font-size="14.00" fill="#000000"></text>
<polyline fill="none" stroke="#000000" points="35.9648,-684.5 128.0352,-684.5 "/>
<text text-anchor="start" x="43.9648" y="-667.9" font-family="Times,serif" font-size="14.00" fill="#000000">b = 2;</text>
<text text-anchor="start" x="43.9648" y="-651.1" font-family="Times,serif" font-size="14.00" fill="#000000">goto &lt;bb 5&gt;;</text>
<text text-anchor="middle" x="82" y="-634.3" font-family="Times,serif" font-size="14.00" fill="#000000"></text>
</g>
<!-- fn_0_basic_block_2&#45;&gt;fn_0_basic_block_3 -->
<g id="edge2" class="edge">
<title>fn_0_basic_block_2:s-&gt;fn_0_basic_block_3:n</title>
<path fill="none" stroke="#000000" stroke-width="2" d="M86,-884.3C86,-847.0496 82.6865,-835.2989 82.0911,-802.6305"/>
<polygon fill="#000000" stroke="#000000" stroke-width="2" points="85.5881,-802.2687 82,-792.3 78.5884,-802.3305 85.5881,-802.2687"/>
<text text-anchor="middle" x="97.9909" y="-834.2" font-family="Times,serif" font-size="14.00" fill="#000000">[0%]</text>
</g>
<!-- fn_0_basic_block_4 -->
<g id="node5" class="node">
<title>fn_0_basic_block_4</title>
<polygon fill="#d3d3d3" stroke="#000000" points="145.6655,-634.5 145.6655,-784.1 208.3345,-784.1 208.3345,-634.5 145.6655,-634.5"/>
<text text-anchor="middle" x="177" y="-767.5" font-family="Times,serif" font-size="14.00" fill="#000000">FREQ:0</text>
<polyline fill="none" stroke="#000000" points="145.6655,-759.3 208.3345,-759.3 "/>
<text text-anchor="start" x="153.6655" y="-742.7" font-family="Times,serif" font-size="14.00" fill="#000000">&lt;bb 4&gt;:</text>
<text text-anchor="middle" x="177" y="-725.9" font-family="Times,serif" font-size="14.00" fill="#000000"></text>
<polyline fill="none" stroke="#000000" points="145.6655,-717.7 208.3345,-717.7 "/>
<text text-anchor="start" x="153.6655" y="-701.1" font-family="Times,serif" font-size="14.00" fill="#000000">a = 2;</text>
<text text-anchor="middle" x="177" y="-684.3" font-family="Times,serif" font-size="14.00" fill="#000000"></text>
<polyline fill="none" stroke="#000000" points="145.6655,-676.1 208.3345,-676.1 "/>
<text text-anchor="start" x="153.6655" y="-659.5" font-family="Times,serif" font-size="14.00" fill="#000000">b = 3;</text>
<text text-anchor="middle" x="177" y="-642.7" font-family="Times,serif" font-size="14.00" fill="#000000"></text>
</g>
<!-- fn_0_basic_block_2&#45;&gt;fn_0_basic_block_4 -->
<g id="edge3" class="edge">
<title>fn_0_basic_block_2:s-&gt;fn_0_basic_block_4:n</title>
<path fill="none" stroke="#000000" stroke-width="2" d="M86,-884.3C86,-871.3309 153.8182,-817.4243 172.3622,-793.2613"/>
<polygon fill="#000000" stroke="#000000" stroke-width="2" points="175.5121,-794.7898 177,-784.3 169.2953,-791.5724 175.5121,-794.7898"/>
<text text-anchor="middle" x="149.9909" y="-834.2" font-family="Times,serif" font-size="14.00" fill="#000000">[0%]</text>
</g>
<!-- fn_0_basic_block_5 -->
<g id="node6" class="node">
<title>fn_0_basic_block_5</title>
<polygon fill="#d3d3d3" stroke="#000000" points="43.3041,-384.7 43.3041,-534.3 126.6959,-534.3 126.6959,-384.7 43.3041,-384.7"/>
<text text-anchor="middle" x="85" y="-517.7" font-family="Times,serif" font-size="14.00" fill="#000000">FREQ:0</text>
<polyline fill="none" stroke="#000000" points="43.3041,-509.5 126.6959,-509.5 "/>
<text text-anchor="start" x="51.3041" y="-492.9" font-family="Times,serif" font-size="14.00" fill="#000000">&lt;bb 5&gt;:</text>
<text text-anchor="middle" x="85" y="-476.1" font-family="Times,serif" font-size="14.00" fill="#000000"></text>
<polyline fill="none" stroke="#000000" points="43.3041,-467.9 126.6959,-467.9 "/>
<text text-anchor="start" x="51.3041" y="-451.3" font-family="Times,serif" font-size="14.00" fill="#000000">c = a + b;</text>
<text text-anchor="middle" x="85" y="-434.5" font-family="Times,serif" font-size="14.00" fill="#000000"></text>
<polyline fill="none" stroke="#000000" points="43.3041,-426.3 126.6959,-426.3 "/>
<text text-anchor="start" x="51.3041" y="-409.7" font-family="Times,serif" font-size="14.00" fill="#000000">D.1415 = 0;</text>
<text text-anchor="middle" x="85" y="-392.9" font-family="Times,serif" font-size="14.00" fill="#000000"></text>
</g>
<!-- fn_0_basic_block_3&#45;&gt;fn_0_basic_block_5 -->
<g id="edge4" class="edge">
<title>fn_0_basic_block_3:s-&gt;fn_0_basic_block_5:n</title>
<path fill="none" stroke="#0000ff" stroke-width="2" d="M82,-626.3C82,-589.1458 84.4852,-577.3943 84.9317,-544.8046"/>
<polygon fill="#0000ff" stroke="#0000ff" stroke-width="2" points="88.4336,-544.523 85,-534.5 81.4337,-544.4766 88.4336,-544.523"/>
<text text-anchor="middle" x="96.9909" y="-576" font-family="Times,serif" font-size="14.00" fill="#000000">[0%]</text>
</g>
<!-- fn_0_basic_block_4&#45;&gt;fn_0_basic_block_5 -->
<g id="edge5" class="edge">
<title>fn_0_basic_block_4:s-&gt;fn_0_basic_block_5:n</title>
<path fill="none" stroke="#0000ff" stroke-width="2" d="M177,-634.3C177,-621.2803 108.4366,-567.6032 89.6888,-543.4662"/>
<polygon fill="#0000ff" stroke="#0000ff" stroke-width="2" points="92.7356,-541.7396 85,-534.5 86.5325,-544.9834 92.7356,-541.7396"/>
<text text-anchor="middle" x="147.9909" y="-576" font-family="Times,serif" font-size="14.00" fill="#000000">[0%]</text>
</g>
<!-- fn_0_basic_block_6 -->
<g id="node7" class="node">
<title>fn_0_basic_block_6</title>
<polygon fill="#d3d3d3" stroke="#000000" points="35.7882,-143.3 35.7882,-292.9 134.2118,-292.9 134.2118,-143.3 35.7882,-143.3"/>
<text text-anchor="middle" x="85" y="-276.3" font-family="Times,serif" font-size="14.00" fill="#000000">FREQ:0</text>
<polyline fill="none" stroke="#000000" points="35.7882,-268.1 134.2118,-268.1 "/>
<text text-anchor="start" x="43.7882" y="-251.5" font-family="Times,serif" font-size="14.00" fill="#000000">&lt;bb 6&gt;:</text>
<text text-anchor="middle" x="85" y="-234.7" font-family="Times,serif" font-size="14.00" fill="#000000"></text>
<polyline fill="none" stroke="#000000" points="35.7882,-226.5 134.2118,-226.5 "/>
<text text-anchor="start" x="43.7882" y="-209.9" font-family="Times,serif" font-size="14.00" fill="#000000">&lt;L3&gt;:</text>
<text text-anchor="middle" x="85" y="-193.1" font-family="Times,serif" font-size="14.00" fill="#000000"></text>
<polyline fill="none" stroke="#000000" points="35.7882,-184.9 134.2118,-184.9 "/>
<text text-anchor="start" x="43.7882" y="-168.3" font-family="Times,serif" font-size="14.00" fill="#000000">return D.1415;</text>
<text text-anchor="middle" x="85" y="-151.5" font-family="Times,serif" font-size="14.00" fill="#000000"></text>
</g>
<!-- fn_0_basic_block_5&#45;&gt;fn_0_basic_block_6 -->
<g id="edge6" class="edge">
<title>fn_0_basic_block_5:s-&gt;fn_0_basic_block_6:n</title>
<path fill="none" stroke="#0000ff" stroke-width="2" d="M85,-384.5C85,-347.5274 85,-335.793 85,-303.3554"/>
<polygon fill="#0000ff" stroke="#0000ff" stroke-width="2" points="88.5001,-303.1 85,-293.1 81.5001,-303.1 88.5001,-303.1"/>
<text text-anchor="middle" x="98.9909" y="-334.6" font-family="Times,serif" font-size="14.00" fill="#000000">[0%]</text>
</g>
<!-- fn_0_basic_block_6&#45;&gt;fn_0_basic_block_1 -->
<g id="edge7" class="edge">
<title>fn_0_basic_block_6:s-&gt;fn_0_basic_block_1:n</title>
<path fill="none" stroke="#000000" stroke-width="2" d="M85,-143.1C85,-106.2488 85,-94.5528 85,-62.2217"/>
<polygon fill="#000000" stroke="#000000" stroke-width="2" points="88.5001,-62 85,-52 81.5001,-62 88.5001,-62"/>
<text text-anchor="middle" x="98.9909" y="-93.2" font-family="Times,serif" font-size="14.00" fill="#000000">[0%]</text>
</g>
</g>
</svg>