<?xml version="1.0" encoding="UTF-8" standalone="no"?><!DOCTYPE svg PUBLIC "-//W3C//DTD SVG 1.1//EN" "http://www.w3.org/Graphics/SVG/1.1/DTD/svg11.dtd"><!-- Generated by graphviz version 2.40.1 (20161225.0304)
 --><!-- Title: B&#45;2.c.011t.cfg Pages: 1 --><svg xmlns="http://www.w3.org/2000/svg" xmlns:xlink="http://www.w3.org/1999/xlink" width="317pt" height="1242pt" viewBox="0.00 0.00 316.98 1241.60">
<g id="graph0" class="graph" transform="scale(1 1) rotate(0) translate(4 1237.6)">
<title>B-2.c.011t.cfg</title>
<polygon fill="#ffffff" stroke="transparent" points="-4,4 -4,-1237.6 312.9818,-1237.6 312.9818,4 -4,4"/>
<g id="clust1" class="cluster">
<title>cluster_main</title>
<polygon fill="none" stroke="#000000" stroke-dasharray="5,2" points="8,-8 8,-1225.6 276,-1225.6 276,-8 8,-8"/>
<text text-anchor="middle" x="142" y="-1209" font-family="Times,serif" font-size="14.00" fill="#000000">main ()</text>
</g>
<g id="clust2" class="cluster">
<title>cluster_0_1</title>
<polygon fill="#e0e0e0" stroke="#006400" stroke-width="2" points="142,-134.8 142,-817.8 268,-817.8 268,-134.8 142,-134.8"/>
<text text-anchor="middle" x="167.6953" y="-801.2" font-family="Times,serif" font-size="14.00" fill="#000000">loop 1</text>
</g>
<!-- fn_0_basic_block_4 -->
<g id="node1" class="node">
<title>fn_0_basic_block_4</title>
<polygon fill="#d3d3d3" stroke="#000000" points="150.4648,-626.1 150.4648,-784.5 249.5352,-784.5 249.5352,-626.1 150.4648,-626.1"/>
<text text-anchor="middle" x="200" y="-767.9" font-family="Times,serif" font-size="14.00" fill="#000000">FREQ:0</text>
<polyline fill="none" stroke="#000000" points="150.4648,-759.7 249.5352,-759.7 "/>
<text text-anchor="start" x="158.4648" y="-743.1" font-family="Times,serif" font-size="14.00" fill="#000000">&lt;bb 4&gt;:</text>
<text text-anchor="middle" x="200" y="-726.3" font-family="Times,serif" font-size="14.00" fill="#000000"></text>
<polyline fill="none" stroke="#000000" points="150.4648,-718.1 249.5352,-718.1 "/>
<text text-anchor="start" x="158.4648" y="-701.5" font-family="Times,serif" font-size="14.00" fill="#000000">if (i &lt;= 3)</text>
<text text-anchor="start" x="158.4648" y="-684.7" font-family="Times,serif" font-size="14.00" fill="#000000">  goto &lt;bb 3&gt;;</text>
<text text-anchor="start" x="158.4648" y="-667.9" font-family="Times,serif" font-size="14.00" fill="#000000">else</text>
<text text-anchor="start" x="158.4648" y="-651.1" font-family="Times,serif" font-size="14.00" fill="#000000">  goto &lt;bb 5&gt;;</text>
<text text-anchor="middle" x="200" y="-634.3" font-family="Times,serif" font-size="14.00" fill="#000000"></text>
</g>
<!-- fn_0_basic_block_3 -->
<g id="node2" class="node">
<title>fn_0_basic_block_3</title>
<polygon fill="#d3d3d3" stroke="#000000" points="152.6422,-143.3 152.6422,-334.5 235.3578,-334.5 235.3578,-143.3 152.6422,-143.3"/>
<text text-anchor="middle" x="194" y="-317.9" font-family="Times,serif" font-size="14.00" fill="#000000">FREQ:0</text>
<polyline fill="none" stroke="#000000" points="152.6422,-309.7 235.3578,-309.7 "/>
<text text-anchor="start" x="160.6422" y="-293.1" font-family="Times,serif" font-size="14.00" fill="#000000">&lt;bb 3&gt;:</text>
<text text-anchor="middle" x="194" y="-276.3" font-family="Times,serif" font-size="14.00" fill="#000000"></text>
<polyline fill="none" stroke="#000000" points="152.6422,-268.1 235.3578,-268.1 "/>
<text text-anchor="start" x="160.6422" y="-251.5" font-family="Times,serif" font-size="14.00" fill="#000000">N.0 = N;</text>
<text text-anchor="middle" x="194" y="-234.7" font-family="Times,serif" font-size="14.00" fill="#000000"></text>
<polyline fill="none" stroke="#000000" points="152.6422,-226.5 235.3578,-226.5 "/>
<text text-anchor="start" x="160.6422" y="-209.9" font-family="Times,serif" font-size="14.00" fill="#000000">a = a + N.0;</text>
<text text-anchor="middle" x="194" y="-193.1" font-family="Times,serif" font-size="14.00" fill="#000000"></text>
<polyline fill="none" stroke="#000000" points="152.6422,-184.9 235.3578,-184.9 "/>
<text text-anchor="start" x="160.6422" y="-168.3" font-family="Times,serif" font-size="14.00" fill="#000000">i = i + 1;</text>
<text text-anchor="middle" x="194" y="-151.5" font-family="Times,serif" font-size="14.00" fill="#000000"></text>
</g>
<!-- fn_0_basic_block_4&#45;&gt;fn_0_basic_block_3 -->
<g id="edge4" class="edge">
<title>fn_0_basic_block_4:s-&gt;fn_0_basic_block_3:n</title>
<path fill="none" stroke="#000000" stroke-width="2" d="M200,-626.3C200,-601.3587 168,-605.1413 168,-580.2 168,-580.2 168,-580.2 168,-380.4 168,-361.1122 185.8306,-358.5391 191.9598,-344.9969"/>
<polygon fill="#000000" stroke="#000000" stroke-width="2" points="195.45,-345.3951 194,-334.9 188.5887,-344.0087 195.45,-345.3951"/>
<text text-anchor="middle" x="181.9909" y="-476.1" font-family="Times,serif" font-size="14.00" fill="#000000">[0%]</text>
</g>
<!-- fn_0_basic_block_5 -->
<g id="node6" class="node">
<title>fn_0_basic_block_5</title>
<polygon fill="#d3d3d3" stroke="#000000" points="43.6968,-426.3 43.6968,-534.3 126.3032,-534.3 126.3032,-426.3 43.6968,-426.3"/>
<text text-anchor="middle" x="85" y="-517.7" font-family="Times,serif" font-size="14.00" fill="#000000">FREQ:0</text>
<polyline fill="none" stroke="#000000" points="43.6968,-509.5 126.3032,-509.5 "/>
<text text-anchor="start" x="51.6968" y="-492.9" font-family="Times,serif" font-size="14.00" fill="#000000">&lt;bb 5&gt;:</text>
<text text-anchor="middle" x="85" y="-476.1" font-family="Times,serif" font-size="14.00" fill="#000000"></text>
<polyline fill="none" stroke="#000000" points="43.6968,-467.9 126.3032,-467.9 "/>
<text text-anchor="start" x="51.6968" y="-451.3" font-family="Times,serif" font-size="14.00" fill="#000000">D.1415 = a;</text>
<text text-anchor="middle" x="85" y="-434.5" font-family="Times,serif" font-size="14.00" fill="#000000"></text>
</g>
<!-- fn_0_basic_block_4&#45;&gt;fn_0_basic_block_5 -->
<g id="edge5" class="edge">
<title>fn_0_basic_block_4:s-&gt;fn_0_basic_block_5:n</title>
<path fill="none" stroke="#000000" stroke-width="2" d="M200,-626.3C200,-607.8746 178.8767,-616.9501 163,-607.6 125.2108,-585.3452 90.8069,-582.2576 85.6619,-544.6404"/>
<polygon fill="#000000" stroke="#000000" stroke-width="2" points="89.1317,-544.056 85,-534.3 82.146,-544.5032 89.1317,-544.056"/>
<text text-anchor="middle" x="137.9909" y="-576" font-family="Times,serif" font-size="14.00" fill="#000000">[0%]</text>
</g>
<!-- fn_0_basic_block_3&#45;&gt;fn_0_basic_block_4 -->
<g id="edge3" class="edge">
<title>fn_0_basic_block_3:s-&gt;fn_0_basic_block_4:n</title>
<path fill="none" stroke="#0000ff" stroke-width="2" stroke-dasharray="1,5" d="M194,-142.9C194,-133.7094 228.7643,-136.4974 235.3578,-142.9 389.3328,-292.419 246.3843,-410.9973 249.5352,-625.6 249.5352,-625.6 213.9431,-739.6293 203.0986,-774.3726"/>
<polygon fill="#0000ff" stroke="#0000ff" stroke-width="2" points="199.6386,-773.7113 200,-784.3 206.3206,-775.7971 199.6386,-773.7113"/>
<text text-anchor="middle" x="294.9909" y="-476.1" font-family="Times,serif" font-size="14.00" fill="#000000">[0%]</text>
</g>
<!-- fn_0_basic_block_0 -->
<g id="node3" class="node">
<title>fn_0_basic_block_0</title>
<polygon fill="#ffffff" stroke="#000000" points="200,-1192.8 138.76,-1174.8 200,-1156.8 261.24,-1174.8 200,-1192.8"/>
<polyline fill="none" stroke="#000000" points="150.273,-1178.184 150.273,-1171.416 "/>
<polyline fill="none" stroke="#000000" points="188.487,-1160.184 211.513,-1160.184 "/>
<polyline fill="none" stroke="#000000" points="249.727,-1171.416 249.727,-1178.184 "/>
<polyline fill="none" stroke="#000000" points="211.513,-1189.416 188.487,-1189.416 "/>
<text text-anchor="middle" x="200" y="-1170.6" font-family="Times,serif" font-size="14.00" fill="#000000">ENTRY</text>
</g>
<!-- fn_0_basic_block_1 -->
<g id="node4" class="node">
<title>fn_0_basic_block_1</title>
<polygon fill="#ffffff" stroke="#000000" points="85,-52 38.1002,-34 85,-16 131.8998,-34 85,-52"/>
<polyline fill="none" stroke="#000000" points="49.3034,-38.2998 49.3034,-29.7002 "/>
<polyline fill="none" stroke="#000000" points="73.7968,-20.2998 96.2032,-20.2998 "/>
<polyline fill="none" stroke="#000000" points="120.6966,-29.7002 120.6966,-38.2998 "/>
<polyline fill="none" stroke="#000000" points="96.2032,-47.7002 73.7968,-47.7002 "/>
<text text-anchor="middle" x="85" y="-29.8" font-family="Times,serif" font-size="14.00" fill="#000000">EXIT</text>
</g>
<!-- fn_0_basic_block_0&#45;&gt;fn_0_basic_block_1 -->
<!-- fn_0_basic_block_2 -->
<g id="node5" class="node">
<title>fn_0_basic_block_2</title>
<polygon fill="#d3d3d3" stroke="#000000" points="153.9648,-899.1 153.9648,-1065.5 246.0352,-1065.5 246.0352,-899.1 153.9648,-899.1"/>
<text text-anchor="middle" x="200" y="-1048.9" font-family="Times,serif" font-size="14.00" fill="#000000">FREQ:0</text>
<polyline fill="none" stroke="#000000" points="153.9648,-1040.7 246.0352,-1040.7 "/>
<text text-anchor="start" x="161.9648" y="-1024.1" font-family="Times,serif" font-size="14.00" fill="#000000">&lt;bb 2&gt;:</text>
<text text-anchor="middle" x="200" y="-1007.3" font-family="Times,serif" font-size="14.00" fill="#000000"></text>
<polyline fill="none" stroke="#000000" points="153.9648,-999.1 246.0352,-999.1 "/>
<text text-anchor="start" x="161.9648" y="-982.5" font-family="Times,serif" font-size="14.00" fill="#000000">a = 10;</text>
<text text-anchor="middle" x="200" y="-965.7" font-family="Times,serif" font-size="14.00" fill="#000000"></text>
<polyline fill="none" stroke="#000000" points="153.9648,-957.5 246.0352,-957.5 "/>
<text text-anchor="start" x="161.9648" y="-940.9" font-family="Times,serif" font-size="14.00" fill="#000000">i = 0;</text>
<text text-anchor="start" x="161.9648" y="-924.1" font-family="Times,serif" font-size="14.00" fill="#000000">goto &lt;bb 4&gt;;</text>
<text text-anchor="middle" x="200" y="-907.3" font-family="Times,serif" font-size="14.00" fill="#000000"></text>
</g>
<!-- fn_0_basic_block_0&#45;&gt;fn_0_basic_block_2 -->
<g id="edge1" class="edge">
<title>fn_0_basic_block_0:s-&gt;fn_0_basic_block_2:n</title>
<path fill="none" stroke="#0000ff" stroke-width="2" d="M200,-1156.8C200,-1119.787 200,-1108.0397 200,-1075.5666"/>
<polygon fill="#0000ff" stroke="#0000ff" stroke-width="2" points="203.5001,-1075.3 200,-1065.3 196.5001,-1075.3 203.5001,-1075.3"/>
<text text-anchor="middle" x="213.9909" y="-1107.2" font-family="Times,serif" font-size="14.00" fill="#000000">[0%]</text>
</g>
<!-- fn_0_basic_block_2&#45;&gt;fn_0_basic_block_4 -->
<g id="edge2" class="edge">
<title>fn_0_basic_block_2:s-&gt;fn_0_basic_block_4:n</title>
<path fill="none" stroke="#0000ff" stroke-width="2" d="M200,-899.3C200,-851.7826 200,-837.3975 200,-794.5394"/>
<polygon fill="#0000ff" stroke="#0000ff" stroke-width="2" points="203.5001,-794.3 200,-784.3 196.5001,-794.3 203.5001,-794.3"/>
<text text-anchor="middle" x="213.9909" y="-849" font-family="Times,serif" font-size="14.00" fill="#000000">[0%]</text>
</g>
<!-- fn_0_basic_block_6 -->
<g id="node7" class="node">
<title>fn_0_basic_block_6</title>
<polygon fill="#d3d3d3" stroke="#000000" points="35.7882,-164.1 35.7882,-313.7 134.2118,-313.7 134.2118,-164.1 35.7882,-164.1"/>
<text text-anchor="middle" x="85" y="-297.1" font-family="Times,serif" font-size="14.00" fill="#000000">FREQ:0</text>
<polyline fill="none" stroke="#000000" points="35.7882,-288.9 134.2118,-288.9 "/>
<text text-anchor="start" x="43.7882" y="-272.3" font-family="Times,serif" font-size="14.00" fill="#000000">&lt;bb 6&gt;:</text>
<text text-anchor="middle" x="85" y="-255.5" font-family="Times,serif" font-size="14.00" fill="#000000"></text>
<polyline fill="none" stroke="#000000" points="35.7882,-247.3 134.2118,-247.3 "/>
<text text-anchor="start" x="43.7882" y="-230.7" font-family="Times,serif" font-size="14.00" fill="#000000">&lt;L3&gt;:</text>
<text text-anchor="middle" x="85" y="-213.9" font-family="Times,serif" font-size="14.00" fill="#000000"></text>
<polyline fill="none" stroke="#000000" points="35.7882,-205.7 134.2118,-205.7 "/>
<text text-anchor="start" x="43.7882" y="-189.1" font-family="Times,serif" font-size="14.00" fill="#000000">return D.1415;</text>
<text text-anchor="middle" x="85" y="-172.3" font-family="Times,serif" font-size="14.00" fill="#000000"></text>
</g>
<!-- fn_0_basic_block_5&#45;&gt;fn_0_basic_block_6 -->
<g id="edge6" class="edge">
<title>fn_0_basic_block_5:s-&gt;fn_0_basic_block_6:n</title>
<path fill="none" stroke="#0000ff" stroke-width="2" d="M85,-426.3C85,-379.8569 85,-365.797 85,-323.9079"/>
<polygon fill="#0000ff" stroke="#0000ff" stroke-width="2" points="88.5001,-323.9 85,-313.9 81.5001,-323.9 88.5001,-323.9"/>
<text text-anchor="middle" x="98.9909" y="-376.2" font-family="Times,serif" font-size="14.00" fill="#000000">[0%]</text>
</g>
<!-- fn_0_basic_block_6&#45;&gt;fn_0_basic_block_1 -->
<g id="edge7" class="edge">
<title>fn_0_basic_block_6:s-&gt;fn_0_basic_block_1:n</title>
<path fill="none" stroke="#000000" stroke-width="2" d="M85,-163.9C85,-117.7607 85,-103.7251 85,-62.2258"/>
<polygon fill="#000000" stroke="#000000" stroke-width="2" points="88.5001,-62 85,-52 81.5001,-62 88.5001,-62"/>
<text text-anchor="middle" x="98.9909" y="-93.2" font-family="Times,serif" font-size="14.00" fill="#000000">[0%]</text>
</g>
</g>
</svg>