<?xml version="1.0" encoding="UTF-8" standalone="no"?><!DOCTYPE svg PUBLIC "-//W3C//DTD SVG 1.1//EN" "http://www.w3.org/Graphics/SVG/1.1/DTD/svg11.dtd"><!-- Generated by graphviz version 2.40.1 (20161225.0304)
 --><!-- Title: B&#45;3.c.011t.cfg Pages: 1 --><svg xmlns="http://www.w3.org/2000/svg" xmlns:xlink="http://www.w3.org/1999/xlink" width="448pt" height="1693pt" viewBox="0.00 0.00 447.78 1693.40">
<g id="graph0" class="graph" transform="scale(1 1) rotate(0) translate(4 1689.4)">
<title>B-3.c.011t.cfg</title>
<polygon fill="#ffffff" stroke="transparent" points="-4,4 -4,-1689.4 443.7764,-1689.4 443.7764,4 -4,4"/>
<g id="clust1" class="cluster">
<title>cluster_main</title>
<polygon fill="none" stroke="#000000" stroke-dasharray="5,2" points="8,-8 8,-1677.4 408,-1677.4 408,-8 8,-8"/>
<text text-anchor="middle" x="208" y="-1660.8" font-family="Times,serif" font-size="14.00" fill="#000000">main ()</text>
</g>
<g id="clust2" class="cluster">
<title>cluster_10_1</title>
<polygon fill="#e0e0e0" stroke="#006400" stroke-width="2" points="184,-16 184,-1311.2 400,-1311.2 400,-16 184,-16"/>
<text text-anchor="middle" x="209.6953" y="-1294.6" font-family="Times,serif" font-size="14.00" fill="#000000">loop 1</text>
</g>
<!-- fn_10_basic_block_7 -->
<g id="node1" class="node">
<title>fn_10_basic_block_7</title>
<polygon fill="#d3d3d3" stroke="#000000" points="192.4648,-1119.5 192.4648,-1277.9 291.5352,-1277.9 291.5352,-1119.5 192.4648,-1119.5"/>
<text text-anchor="middle" x="242" y="-1261.3" font-family="Times,serif" font-size="14.00" fill="#000000">FREQ:0</text>
<polyline fill="none" stroke="#000000" points="192.4648,-1253.1 291.5352,-1253.1 "/>
<text text-anchor="start" x="200.4648" y="-1236.5" font-family="Times,serif" font-size="14.00" fill="#000000">&lt;bb 7&gt;:</text>
<text text-anchor="middle" x="242" y="-1219.7" font-family="Times,serif" font-size="14.00" fill="#000000"></text>
<polyline fill="none" stroke="#000000" points="192.4648,-1211.5 291.5352,-1211.5 "/>
<text text-anchor="start" x="200.4648" y="-1194.9" font-family="Times,serif" font-size="14.00" fill="#000000">if (a &lt;= 99)</text>
<text text-anchor="start" x="200.4648" y="-1178.1" font-family="Times,serif" font-size="14.00" fill="#000000">  goto &lt;bb 3&gt;;</text>
<text text-anchor="start" x="200.4648" y="-1161.3" font-family="Times,serif" font-size="14.00" fill="#000000">else</text>
<text text-anchor="start" x="200.4648" y="-1144.5" font-family="Times,serif" font-size="14.00" fill="#000000">  goto &lt;bb 8&gt;;</text>
<text text-anchor="middle" x="242" y="-1127.7" font-family="Times,serif" font-size="14.00" fill="#000000"></text>
</g>
<!-- fn_10_basic_block_3 -->
<g id="node2" class="node">
<title>fn_10_basic_block_3</title>
<polygon fill="#d3d3d3" stroke="#000000" points="192.4648,-627.9 192.4648,-786.3 291.5352,-786.3 291.5352,-627.9 192.4648,-627.9"/>
<text text-anchor="middle" x="242" y="-769.7" font-family="Times,serif" font-size="14.00" fill="#000000">FREQ:0</text>
<polyline fill="none" stroke="#000000" points="192.4648,-761.5 291.5352,-761.5 "/>
<text text-anchor="start" x="200.4648" y="-744.9" font-family="Times,serif" font-size="14.00" fill="#000000">&lt;bb 3&gt;:</text>
<text text-anchor="middle" x="242" y="-728.1" font-family="Times,serif" font-size="14.00" fill="#000000"></text>
<polyline fill="none" stroke="#000000" points="192.4648,-719.9 291.5352,-719.9 "/>
<text text-anchor="start" x="200.4648" y="-703.3" font-family="Times,serif" font-size="14.00" fill="#000000">if (a &lt;= 3)</text>
<text text-anchor="start" x="200.4648" y="-686.5" font-family="Times,serif" font-size="14.00" fill="#000000">  goto &lt;bb 4&gt;;</text>
<text text-anchor="start" x="200.4648" y="-669.7" font-family="Times,serif" font-size="14.00" fill="#000000">else</text>
<text text-anchor="start" x="200.4648" y="-652.9" font-family="Times,serif" font-size="14.00" fill="#000000">  goto &lt;bb 5&gt;;</text>
<text text-anchor="middle" x="242" y="-636.1" font-family="Times,serif" font-size="14.00" fill="#000000"></text>
</g>
<!-- fn_10_basic_block_7&#45;&gt;fn_10_basic_block_3 -->
<g id="edge8" class="edge">
<title>fn_10_basic_block_7:s-&gt;fn_10_basic_block_3:n</title>
<path fill="none" stroke="#000000" stroke-width="2" d="M242,-1119.7C242,-1099.2111 242,-1094.0889 242,-1073.6 242,-1073.6 242,-1073.6 242,-832.2 242,-815.5528 242,-809.05 242,-796.2069"/>
<polygon fill="#000000" stroke="#000000" stroke-width="2" points="245.5001,-796.1 242,-786.1 238.5001,-796.1 245.5001,-796.1"/>
<text text-anchor="middle" x="255.9909" y="-948.7" font-family="Times,serif" font-size="14.00" fill="#000000">[0%]</text>
</g>
<!-- fn_10_basic_block_8 -->
<g id="node9" class="node">
<title>fn_10_basic_block_8</title>
<polygon fill="#d3d3d3" stroke="#000000" points="36.1144,-878.1 36.1144,-1027.7 175.8856,-1027.7 175.8856,-878.1 36.1144,-878.1"/>
<text text-anchor="middle" x="106" y="-1011.1" font-family="Times,serif" font-size="14.00" fill="#000000">FREQ:0</text>
<polyline fill="none" stroke="#000000" points="36.1144,-1002.9 175.8856,-1002.9 "/>
<text text-anchor="start" x="44.1144" y="-986.3" font-family="Times,serif" font-size="14.00" fill="#000000">&lt;bb 8&gt;:</text>
<text text-anchor="middle" x="106" y="-969.5" font-family="Times,serif" font-size="14.00" fill="#000000"></text>
<polyline fill="none" stroke="#000000" points="36.1144,-961.3 175.8856,-961.3 "/>
<text text-anchor="start" x="44.1144" y="-944.7" font-family="Times,serif" font-size="14.00" fill="#000000">printf ("%d%d", a, b);</text>
<text text-anchor="middle" x="106" y="-927.9" font-family="Times,serif" font-size="14.00" fill="#000000"></text>
<polyline fill="none" stroke="#000000" points="36.1144,-919.7 175.8856,-919.7 "/>
<text text-anchor="start" x="44.1144" y="-903.1" font-family="Times,serif" font-size="14.00" fill="#000000">D.1891 = 0;</text>
<text text-anchor="middle" x="106" y="-886.3" font-family="Times,serif" font-size="14.00" fill="#000000"></text>
</g>
<!-- fn_10_basic_block_7&#45;&gt;fn_10_basic_block_8 -->
<g id="edge9" class="edge">
<title>fn_10_basic_block_7:s-&gt;fn_10_basic_block_8:n</title>
<path fill="none" stroke="#000000" stroke-width="2" d="M242,-1119.7C242,-1086.6555 130.3047,-1068.0564 109.3618,-1037.7204"/>
<polygon fill="#000000" stroke="#000000" stroke-width="2" points="112.5502,-1036.2274 106,-1027.9 105.9275,-1038.4946 112.5502,-1036.2274"/>
<text text-anchor="middle" x="204.9909" y="-1069.4" font-family="Times,serif" font-size="14.00" fill="#000000">[0%]</text>
</g>
<!-- fn_10_basic_block_4 -->
<g id="node3" class="node">
<title>fn_10_basic_block_4</title>
<polygon fill="#d3d3d3" stroke="#000000" points="191.9648,-300.3 191.9648,-425.1 284.0352,-425.1 284.0352,-300.3 191.9648,-300.3"/>
<text text-anchor="middle" x="238" y="-408.5" font-family="Times,serif" font-size="14.00" fill="#000000">FREQ:0</text>
<polyline fill="none" stroke="#000000" points="191.9648,-400.3 284.0352,-400.3 "/>
<text text-anchor="start" x="199.9648" y="-383.7" font-family="Times,serif" font-size="14.00" fill="#000000">&lt;bb 4&gt;:</text>
<text text-anchor="middle" x="238" y="-366.9" font-family="Times,serif" font-size="14.00" fill="#000000"></text>
<polyline fill="none" stroke="#000000" points="191.9648,-358.7 284.0352,-358.7 "/>
<text text-anchor="start" x="199.9648" y="-342.1" font-family="Times,serif" font-size="14.00" fill="#000000">b = b + 2;</text>
<text text-anchor="start" x="199.9648" y="-325.3" font-family="Times,serif" font-size="14.00" fill="#000000">goto &lt;bb 6&gt;;</text>
<text text-anchor="middle" x="238" y="-308.5" font-family="Times,serif" font-size="14.00" fill="#000000"></text>
</g>
<!-- fn_10_basic_block_3&#45;&gt;fn_10_basic_block_4 -->
<g id="edge3" class="edge">
<title>fn_10_basic_block_3:s-&gt;fn_10_basic_block_4:n</title>
<path fill="none" stroke="#000000" stroke-width="2" d="M242,-628.1C242,-607.4383 236,-602.6617 236,-582 236,-582 236,-582 236,-463.1 236,-450.0156 237.1724,-444.475 237.7219,-434.9268"/>
<polygon fill="#000000" stroke="#000000" stroke-width="2" points="241.2268,-434.7915 238,-424.7 234.2294,-434.6011 241.2268,-434.7915"/>
<text text-anchor="middle" x="249.9909" y="-514.4" font-family="Times,serif" font-size="14.00" fill="#000000">[0%]</text>
</g>
<!-- fn_10_basic_block_5 -->
<g id="node4" class="node">
<title>fn_10_basic_block_5</title>
<polygon fill="#d3d3d3" stroke="#000000" points="302.1074,-308.7 302.1074,-416.7 371.8926,-416.7 371.8926,-308.7 302.1074,-308.7"/>
<text text-anchor="middle" x="337" y="-400.1" font-family="Times,serif" font-size="14.00" fill="#000000">FREQ:0</text>
<polyline fill="none" stroke="#000000" points="302.1074,-391.9 371.8926,-391.9 "/>
<text text-anchor="start" x="310.1074" y="-375.3" font-family="Times,serif" font-size="14.00" fill="#000000">&lt;bb 5&gt;:</text>
<text text-anchor="middle" x="337" y="-358.5" font-family="Times,serif" font-size="14.00" fill="#000000"></text>
<polyline fill="none" stroke="#000000" points="302.1074,-350.3 371.8926,-350.3 "/>
<text text-anchor="start" x="310.1074" y="-333.7" font-family="Times,serif" font-size="14.00" fill="#000000">b = b * 2;</text>
<text text-anchor="middle" x="337" y="-316.9" font-family="Times,serif" font-size="14.00" fill="#000000"></text>
</g>
<!-- fn_10_basic_block_3&#45;&gt;fn_10_basic_block_5 -->
<g id="edge4" class="edge">
<title>fn_10_basic_block_3:s-&gt;fn_10_basic_block_5:n</title>
<path fill="none" stroke="#000000" stroke-width="2" d="M242,-628.1C242,-595.1715 300,-614.9285 300,-582 300,-582 300,-582 300,-463.1 300,-440.6391 326.8309,-441.9114 334.7963,-426.4963"/>
<polygon fill="#000000" stroke="#000000" stroke-width="2" points="338.2199,-427.2244 337,-416.7 331.3906,-425.688 338.2199,-427.2244"/>
<text text-anchor="middle" x="313.9909" y="-514.4" font-family="Times,serif" font-size="14.00" fill="#000000">[0%]</text>
</g>
<!-- fn_10_basic_block_6 -->
<g id="node5" class="node">
<title>fn_10_basic_block_6</title>
<polygon fill="#d3d3d3" stroke="#000000" points="250.4455,-24.5 250.4455,-132.5 319.5545,-132.5 319.5545,-24.5 250.4455,-24.5"/>
<text text-anchor="middle" x="285" y="-115.9" font-family="Times,serif" font-size="14.00" fill="#000000">FREQ:0</text>
<polyline fill="none" stroke="#000000" points="250.4455,-107.7 319.5545,-107.7 "/>
<text text-anchor="start" x="258.4455" y="-91.1" font-family="Times,serif" font-size="14.00" fill="#000000">&lt;bb 6&gt;:</text>
<text text-anchor="middle" x="285" y="-74.3" font-family="Times,serif" font-size="14.00" fill="#000000"></text>
<polyline fill="none" stroke="#000000" points="250.4455,-66.1 319.5545,-66.1 "/>
<text text-anchor="start" x="258.4455" y="-49.5" font-family="Times,serif" font-size="14.00" fill="#000000">a = a + 1;</text>
<text text-anchor="middle" x="285" y="-32.7" font-family="Times,serif" font-size="14.00" fill="#000000"></text>
</g>
<!-- fn_10_basic_block_4&#45;&gt;fn_10_basic_block_6 -->
<g id="edge5" class="edge">
<title>fn_10_basic_block_4:s-&gt;fn_10_basic_block_6:n</title>
<path fill="none" stroke="#0000ff" stroke-width="2" d="M238,-300.7C238,-283.4263 244,-279.5737 244,-262.3 244,-262.3 244,-262.3 244,-170.5 244,-149.731 272.6505,-154.4927 282.0514,-142.1009"/>
<polygon fill="#0000ff" stroke="#0000ff" stroke-width="2" points="285.4099,-143.0869 285,-132.5 278.7183,-141.0318 285.4099,-143.0869"/>
<text text-anchor="middle" x="257.9909" y="-212.2" font-family="Times,serif" font-size="14.00" fill="#000000">[0%]</text>
</g>
<!-- fn_10_basic_block_5&#45;&gt;fn_10_basic_block_6 -->
<g id="edge6" class="edge">
<title>fn_10_basic_block_5:s-&gt;fn_10_basic_block_6:n</title>
<path fill="none" stroke="#0000ff" stroke-width="2" d="M337,-308.7C337,-287.3993 325,-283.6007 325,-262.3 325,-262.3 325,-262.3 325,-170.5 325,-150.1935 297.5684,-154.2759 288.1387,-142.3531"/>
<polygon fill="#0000ff" stroke="#0000ff" stroke-width="2" points="291.3702,-140.9659 285,-132.5 284.7004,-143.0906 291.3702,-140.9659"/>
<text text-anchor="middle" x="338.9909" y="-212.2" font-family="Times,serif" font-size="14.00" fill="#000000">[0%]</text>
</g>
<!-- fn_10_basic_block_6&#45;&gt;fn_10_basic_block_7 -->
<g id="edge7" class="edge">
<title>fn_10_basic_block_6:s-&gt;fn_10_basic_block_7:n</title>
<path fill="none" stroke="#0000ff" stroke-width="2" stroke-dasharray="1,5" d="M285,-24.5C285,-9.1424 307.5705,-14.8959 319.5545,-24.5 417.3817,-102.8997 367.2627,-175.1888 381,-299.8 387.1266,-355.3744 383.9231,-369.7654 381,-425.6 361.0917,-805.872 574.5054,-1022.8844 291.5352,-1277.7 285.6558,-1282.9944 262.6381,-1286.3648 250.1557,-1283.7545"/>
<polygon fill="#0000ff" stroke="#0000ff" stroke-width="2" points="252.1156,-1280.8505 242,-1277.7 247.9431,-1286.471 252.1156,-1280.8505"/>
<text text-anchor="middle" x="394.9909" y="-514.4" font-family="Times,serif" font-size="14.00" fill="#000000">[0%]</text>
</g>
<!-- fn_10_basic_block_0 -->
<g id="node6" class="node">
<title>fn_10_basic_block_0</title>
<polygon fill="#ffffff" stroke="#000000" points="242,-1644.6 180.76,-1626.6 242,-1608.6 303.24,-1626.6 242,-1644.6"/>
<polyline fill="none" stroke="#000000" points="192.273,-1629.984 192.273,-1623.216 "/>
<polyline fill="none" stroke="#000000" points="230.487,-1611.984 253.513,-1611.984 "/>
<polyline fill="none" stroke="#000000" points="291.727,-1623.216 291.727,-1629.984 "/>
<polyline fill="none" stroke="#000000" points="253.513,-1641.216 230.487,-1641.216 "/>
<text text-anchor="middle" x="242" y="-1622.4" font-family="Times,serif" font-size="14.00" fill="#000000">ENTRY</text>
</g>
<!-- fn_10_basic_block_1 -->
<g id="node7" class="node">
<title>fn_10_basic_block_1</title>
<polygon fill="#ffffff" stroke="#000000" points="106,-536.6 59.1002,-518.6 106,-500.6 152.8998,-518.6 106,-536.6"/>
<polyline fill="none" stroke="#000000" points="70.3034,-522.8998 70.3034,-514.3002 "/>
<polyline fill="none" stroke="#000000" points="94.7968,-504.8998 117.2032,-504.8998 "/>
<polyline fill="none" stroke="#000000" points="141.6966,-514.3002 141.6966,-522.8998 "/>
<polyline fill="none" stroke="#000000" points="117.2032,-532.3002 94.7968,-532.3002 "/>
<text text-anchor="middle" x="106" y="-514.4" font-family="Times,serif" font-size="14.00" fill="#000000">EXIT</text>
</g>
<!-- fn_10_basic_block_0&#45;&gt;fn_10_basic_block_1 -->
<!-- fn_10_basic_block_2 -->
<g id="node8" class="node">
<title>fn_10_basic_block_2</title>
<polygon fill="#d3d3d3" stroke="#000000" points="195.9648,-1392.5 195.9648,-1517.3 288.0352,-1517.3 288.0352,-1392.5 195.9648,-1392.5"/>
<text text-anchor="middle" x="242" y="-1500.7" font-family="Times,serif" font-size="14.00" fill="#000000">FREQ:0</text>
<polyline fill="none" stroke="#000000" points="195.9648,-1492.5 288.0352,-1492.5 "/>
<text text-anchor="start" x="203.9648" y="-1475.9" font-family="Times,serif" font-size="14.00" fill="#000000">&lt;bb 2&gt;:</text>
<text text-anchor="middle" x="242" y="-1459.1" font-family="Times,serif" font-size="14.00" fill="#000000"></text>
<polyline fill="none" stroke="#000000" points="195.9648,-1450.9 288.0352,-1450.9 "/>
<text text-anchor="start" x="203.9648" y="-1434.3" font-family="Times,serif" font-size="14.00" fill="#000000">a = 4;</text>
<text text-anchor="start" x="203.9648" y="-1417.5" font-family="Times,serif" font-size="14.00" fill="#000000">goto &lt;bb 7&gt;;</text>
<text text-anchor="middle" x="242" y="-1400.7" font-family="Times,serif" font-size="14.00" fill="#000000"></text>
</g>
<!-- fn_10_basic_block_0&#45;&gt;fn_10_basic_block_2 -->
<g id="edge1" class="edge">
<title>fn_10_basic_block_0:s-&gt;fn_10_basic_block_2:n</title>
<path fill="none" stroke="#0000ff" stroke-width="2" d="M242,-1608.6C242,-1571.5061 242,-1559.7331 242,-1527.189"/>
<polygon fill="#0000ff" stroke="#0000ff" stroke-width="2" points="245.5001,-1526.9 242,-1516.9 238.5001,-1526.9 245.5001,-1526.9"/>
<text text-anchor="middle" x="255.9909" y="-1559" font-family="Times,serif" font-size="14.00" fill="#000000">[0%]</text>
</g>
<!-- fn_10_basic_block_2&#45;&gt;fn_10_basic_block_7 -->
<g id="edge2" class="edge">
<title>fn_10_basic_block_2:s-&gt;fn_10_basic_block_7:n</title>
<path fill="none" stroke="#0000ff" stroke-width="2" d="M242,-1392.9C242,-1345.3 242,-1330.8898 242,-1287.9572"/>
<polygon fill="#0000ff" stroke="#0000ff" stroke-width="2" points="245.5001,-1287.7 242,-1277.7 238.5001,-1287.7 245.5001,-1287.7"/>
<text text-anchor="middle" x="255.9909" y="-1342.4" font-family="Times,serif" font-size="14.00" fill="#000000">[0%]</text>
</g>
<!-- fn_10_basic_block_9 -->
<g id="node10" class="node">
<title>fn_10_basic_block_9</title>
<polygon fill="#d3d3d3" stroke="#000000" points="56.7882,-632.3 56.7882,-781.9 155.2118,-781.9 155.2118,-632.3 56.7882,-632.3"/>
<text text-anchor="middle" x="106" y="-765.3" font-family="Times,serif" font-size="14.00" fill="#000000">FREQ:0</text>
<polyline fill="none" stroke="#000000" points="56.7882,-757.1 155.2118,-757.1 "/>
<text text-anchor="start" x="64.7882" y="-740.5" font-family="Times,serif" font-size="14.00" fill="#000000">&lt;bb 9&gt;:</text>
<text text-anchor="middle" x="106" y="-723.7" font-family="Times,serif" font-size="14.00" fill="#000000"></text>
<polyline fill="none" stroke="#000000" points="56.7882,-715.5 155.2118,-715.5 "/>
<text text-anchor="start" x="64.7882" y="-698.9" font-family="Times,serif" font-size="14.00" fill="#000000">&lt;L6&gt;:</text>
<text text-anchor="middle" x="106" y="-682.1" font-family="Times,serif" font-size="14.00" fill="#000000"></text>
<polyline fill="none" stroke="#000000" points="56.7882,-673.9 155.2118,-673.9 "/>
<text text-anchor="start" x="64.7882" y="-657.3" font-family="Times,serif" font-size="14.00" fill="#000000">return D.1891;</text>
<text text-anchor="middle" x="106" y="-640.5" font-family="Times,serif" font-size="14.00" fill="#000000"></text>
</g>
<!-- fn_10_basic_block_8&#45;&gt;fn_10_basic_block_9 -->
<g id="edge10" class="edge">
<title>fn_10_basic_block_8:s-&gt;fn_10_basic_block_9:n</title>
<path fill="none" stroke="#0000ff" stroke-width="2" d="M106,-877.9C106,-838.9813 106,-826.7431 106,-792.4101"/>
<polygon fill="#0000ff" stroke="#0000ff" stroke-width="2" points="109.5001,-792.1 106,-782.1 102.5001,-792.1 109.5001,-792.1"/>
<text text-anchor="middle" x="119.9909" y="-828" font-family="Times,serif" font-size="14.00" fill="#000000">[0%]</text>
</g>
<!-- fn_10_basic_block_9&#45;&gt;fn_10_basic_block_1 -->
<g id="edge11" class="edge">
<title>fn_10_basic_block_9:s-&gt;fn_10_basic_block_1:n</title>
<path fill="none" stroke="#000000" stroke-width="2" d="M106,-632.1C106,-593.3031 106,-581.1033 106,-546.8778"/>
<polygon fill="#000000" stroke="#000000" stroke-width="2" points="109.5001,-546.6 106,-536.6 102.5001,-546.6 109.5001,-546.6"/>
<text text-anchor="middle" x="119.9909" y="-577.8" font-family="Times,serif" font-size="14.00" fill="#000000">[0%]</text>
</g>
</g>
</svg>