<?xml version="1.0" encoding="UTF-8" standalone="no"?><!DOCTYPE svg PUBLIC "-//W3C//DTD SVG 1.1//EN" "http://www.w3.org/Graphics/SVG/1.1/DTD/svg11.dtd"><!-- Generated by graphviz version 2.40.1 (20161225.0304)
 --><!-- Title: B&#45;4.c.011t.cfg Pages: 1 --><svg xmlns="http://www.w3.org/2000/svg" xmlns:xlink="http://www.w3.org/1999/xlink" width="200pt" height="835pt" viewBox="0.00 0.00 200.00 835.20">
<g id="graph0" class="graph" transform="scale(1 1) rotate(0) translate(4 831.2)">
<title>B-4.c.011t.cfg</title>
<polygon fill="#ffffff" stroke="transparent" points="-4,4 -4,-831.2 196,-831.2 196,4 -4,4"/>
<g id="clust1" class="cluster">
<title>cluster_main</title>
<polygon fill="none" stroke="#000000" stroke-dasharray="5,2" points="8,-8 8,-819.2 184,-819.2 184,-8 8,-8"/>
<text text-anchor="middle" x="96" y="-802.6" font-family="Times,serif" font-size="14.00" fill="#000000">main ()</text>
</g>
<!-- fn_0_basic_block_0 -->
<g id="node1" class="node">
<title>fn_0_basic_block_0</title>
<polygon fill="#ffffff" stroke="#000000" points="106,-786.4 44.76,-768.4 106,-750.4 167.24,-768.4 106,-786.4"/>
<polyline fill="none" stroke="#000000" points="56.273,-771.784 56.273,-765.016 "/>
<polyline fill="none" stroke="#000000" points="94.487,-753.784 117.513,-753.784 "/>
<polyline fill="none" stroke="#000000" points="155.727,-765.016 155.727,-771.784 "/>
<polyline fill="none" stroke="#000000" points="117.513,-783.016 94.487,-783.016 "/>
<text text-anchor="middle" x="106" y="-764.2" font-family="Times,serif" font-size="14.00" fill="#000000">ENTRY</text>
</g>
<!-- fn_0_basic_block_1 -->
<g id="node2" class="node">
<title>fn_0_basic_block_1</title>
<polygon fill="#ffffff" stroke="#000000" points="106,-52 59.1002,-34 106,-16 152.8998,-34 106,-52"/>
<polyline fill="none" stroke="#000000" points="70.3034,-38.2998 70.3034,-29.7002 "/>
<polyline fill="none" stroke="#000000" points="94.7968,-20.2998 117.2032,-20.2998 "/>
<polyline fill="none" stroke="#000000" points="141.6966,-29.7002 141.6966,-38.2998 "/>
<polyline fill="none" stroke="#000000" points="117.2032,-47.7002 94.7968,-47.7002 "/>
<text text-anchor="middle" x="106" y="-29.8" font-family="Times,serif" font-size="14.00" fill="#000000">EXIT</text>
</g>
<!-- fn_0_basic_block_0&#45;&gt;fn_0_basic_block_1 -->
<!-- fn_0_basic_block_2 -->
<g id="node3" class="node">
<title>fn_0_basic_block_2</title>
<polygon fill="#d3d3d3" stroke="#000000" points="36.0535,-384.7 36.0535,-659.1 175.9465,-659.1 175.9465,-384.7 36.0535,-384.7"/>
<text text-anchor="middle" x="106" y="-642.5" font-family="Times,serif" font-size="14.00" fill="#000000">FREQ:0</text>
<polyline fill="none" stroke="#000000" points="36.0535,-634.3 175.9465,-634.3 "/>
<text text-anchor="start" x="44.0535" y="-617.7" font-family="Times,serif" font-size="14.00" fill="#000000">&lt;bb 2&gt;:</text>
<text text-anchor="middle" x="106" y="-600.9" font-family="Times,serif" font-size="14.00" fill="#000000"></text>
<polyline fill="none" stroke="#000000" points="36.0535,-592.7 175.9465,-592.7 "/>
<text text-anchor="start" x="44.0535" y="-576.1" font-family="Times,serif" font-size="14.00" fill="#000000">D.1411 = a + c;</text>
<text text-anchor="middle" x="106" y="-559.3" font-family="Times,serif" font-size="14.00" fill="#000000"></text>
<polyline fill="none" stroke="#000000" points="36.0535,-551.1 175.9465,-551.1 "/>
<text text-anchor="start" x="44.0535" y="-534.5" font-family="Times,serif" font-size="14.00" fill="#000000">D.1412 = D.1411 + b;</text>
<text text-anchor="middle" x="106" y="-517.7" font-family="Times,serif" font-size="14.00" fill="#000000"></text>
<polyline fill="none" stroke="#000000" points="36.0535,-509.5 175.9465,-509.5 "/>
<text text-anchor="start" x="44.0535" y="-492.9" font-family="Times,serif" font-size="14.00" fill="#000000">D.1413 = c + a;</text>
<text text-anchor="middle" x="106" y="-476.1" font-family="Times,serif" font-size="14.00" fill="#000000"></text>
<polyline fill="none" stroke="#000000" points="36.0535,-467.9 175.9465,-467.9 "/>
<text text-anchor="start" x="44.0535" y="-451.3" font-family="Times,serif" font-size="14.00" fill="#000000">b = D.1412 * D.1413;</text>
<text text-anchor="middle" x="106" y="-434.5" font-family="Times,serif" font-size="14.00" fill="#000000"></text>
<polyline fill="none" stroke="#000000" points="36.0535,-426.3 175.9465,-426.3 "/>
<text text-anchor="start" x="44.0535" y="-409.7" font-family="Times,serif" font-size="14.00" fill="#000000">D.1414 = b;</text>
<text text-anchor="middle" x="106" y="-392.9" font-family="Times,serif" font-size="14.00" fill="#000000"></text>
</g>
<!-- fn_0_basic_block_0&#45;&gt;fn_0_basic_block_2 -->
<g id="edge1" class="edge">
<title>fn_0_basic_block_0:s-&gt;fn_0_basic_block_2:n</title>
<path fill="none" stroke="#0000ff" stroke-width="2" d="M106,-750.4C106,-713.387 106,-701.6397 106,-669.1666"/>
<polygon fill="#0000ff" stroke="#0000ff" stroke-width="2" points="109.5001,-668.9 106,-658.9 102.5001,-668.9 109.5001,-668.9"/>
<text text-anchor="middle" x="119.9909" y="-700.8" font-family="Times,serif" font-size="14.00" fill="#000000">[0%]</text>
</g>
<!-- fn_0_basic_block_3 -->
<g id="node4" class="node">
<title>fn_0_basic_block_3</title>
<polygon fill="#d3d3d3" stroke="#000000" points="56.7882,-143.3 56.7882,-292.9 155.2118,-292.9 155.2118,-143.3 56.7882,-143.3"/>
<text text-anchor="middle" x="106" y="-276.3" font-family="Times,serif" font-size="14.00" fill="#000000">FREQ:0</text>
<polyline fill="none" stroke="#000000" points="56.7882,-268.1 155.2118,-268.1 "/>
<text text-anchor="start" x="64.7882" y="-251.5" font-family="Times,serif" font-size="14.00" fill="#000000">&lt;bb 3&gt;:</text>
<text text-anchor="middle" x="106" y="-234.7" font-family="Times,serif" font-size="14.00" fill="#000000"></text>
<polyline fill="none" stroke="#000000" points="56.7882,-226.5 155.2118,-226.5 "/>
<text text-anchor="start" x="64.7882" y="-209.9" font-family="Times,serif" font-size="14.00" fill="#000000">&lt;L0&gt;:</text>
<text text-anchor="middle" x="106" y="-193.1" font-family="Times,serif" font-size="14.00" fill="#000000"></text>
<polyline fill="none" stroke="#000000" points="56.7882,-184.9 155.2118,-184.9 "/>
<text text-anchor="start" x="64.7882" y="-168.3" font-family="Times,serif" font-size="14.00" fill="#000000">return D.1414;</text>
<text text-anchor="middle" x="106" y="-151.5" font-family="Times,serif" font-size="14.00" fill="#000000"></text>
</g>
<!-- fn_0_basic_block_2&#45;&gt;fn_0_basic_block_3 -->
<g id="edge2" class="edge">
<title>fn_0_basic_block_2:s-&gt;fn_0_basic_block_3:n</title>
<path fill="none" stroke="#0000ff" stroke-width="2" d="M106,-384.9C106,-347.7656 106,-335.9798 106,-303.4003"/>
<polygon fill="#0000ff" stroke="#0000ff" stroke-width="2" points="109.5001,-303.1 106,-293.1 102.5001,-303.1 109.5001,-303.1"/>
<text text-anchor="middle" x="119.9909" y="-334.6" font-family="Times,serif" font-size="14.00" fill="#000000">[0%]</text>
</g>
<!-- fn_0_basic_block_3&#45;&gt;fn_0_basic_block_1 -->
<g id="edge3" class="edge">
<title>fn_0_basic_block_3:s-&gt;fn_0_basic_block_1:n</title>
<path fill="none" stroke="#000000" stroke-width="2" d="M106,-143.1C106,-106.2488 106,-94.5528 106,-62.2217"/>
<polygon fill="#000000" stroke="#000000" stroke-width="2" points="109.5001,-62 106,-52 102.5001,-62 109.5001,-62"/>
<text text-anchor="middle" x="119.9909" y="-93.2" font-family="Times,serif" font-size="14.00" fill="#000000">[0%]</text>
</g>
</g>
</svg>